<svg width="150" height="69" viewBox="0 0 150 69" fill="none" xmlns="http://www.w3.org/2000/svg">
<path fill-rule="evenodd" clip-rule="evenodd" d="M78.3877 20.5233V10.5449C78.3877 9.69811 78.5797 9.06048 78.965 8.63651C79.3436 8.20919 79.8461 8 80.4614 8C81.1158 8 81.6305 8.20919 82.0102 8.63651C82.3922 9.06048 82.5853 9.69811 82.5853 10.5494V20.7671C82.5853 21.9272 82.7138 22.8993 82.9706 23.6767C83.2331 24.4564 83.692 25.0605 84.3497 25.4923C85.0097 25.9185 85.9377 26.1367 87.128 26.1367C88.763 26.1367 89.921 25.697 90.6033 24.829C91.2777 23.9497 91.6195 22.6241 91.6195 20.8499V10.5494C91.6195 9.68357 91.8104 9.04706 92.1856 8.63204C92.5586 8.20919 93.0644 8 93.6953 8C94.3252 8 94.8344 8.20919 95.2275 8.62756C95.6184 9.04706 95.8126 9.68357 95.8126 10.5494V20.53C95.8126 22.1543 95.6563 23.5112 95.3402 24.5952C95.0265 25.6791 94.4313 26.6367 93.5546 27.4589C92.8008 28.1513 91.9254 28.6614 90.926 28.9758C89.9287 29.2935 88.7607 29.459 87.4195 29.459C85.8294 29.459 84.4603 29.2834 83.309 28.9366C82.1599 28.5921 81.2174 28.0607 80.4938 27.3414C79.769 26.6199 79.2397 25.6881 78.8991 24.5683C78.5608 23.4351 78.3877 22.0927 78.3877 20.5233Z" fill="white"/>
<path fill-rule="evenodd" clip-rule="evenodd" d="M107.037 25.9722L103.71 12.7498V27.0808C103.71 27.8672 103.536 28.4679 103.187 28.8606C102.836 29.2622 102.367 29.459 101.788 29.459C101.224 29.459 100.767 29.2622 100.41 28.8684C100.056 28.4757 99.8784 27.8806 99.8784 27.0808V10.6624C99.8784 9.75406 100.111 9.14328 100.587 8.82558C101.051 8.5146 101.684 8.35352 102.486 8.35352H103.78C104.564 8.35352 105.127 8.42958 105.482 8.56941C105.832 8.7126 106.09 8.96653 106.266 9.33233C106.433 9.69925 106.625 10.2977 106.845 11.1289L109.855 22.4921L112.86 11.1289C113.08 10.2977 113.27 9.69925 113.441 9.33233C113.608 8.96653 113.87 8.7126 114.223 8.56941C114.579 8.42958 115.143 8.35352 115.927 8.35352H117.224C118.024 8.35352 118.656 8.5146 119.129 8.82558C119.603 9.14328 119.837 9.75406 119.837 10.6624V27.0808C119.837 27.8694 119.658 28.4679 119.304 28.8606C118.959 29.2622 118.484 29.459 117.895 29.459C117.341 29.459 116.887 29.2622 116.534 28.8606C116.172 28.4679 116.001 27.8672 116.001 27.0808V12.7498L112.677 25.9722C112.457 26.8313 112.278 27.4678 112.144 27.8627C112.003 28.2666 111.75 28.6301 111.386 28.9601C111.019 29.2935 110.509 29.459 109.855 29.459C109.368 29.459 108.95 29.3539 108.608 29.1357C108.269 28.9243 108.008 28.657 107.821 28.3258C107.63 27.9903 107.481 27.6278 107.37 27.2273C107.261 26.8257 107.155 26.4085 107.037 25.9722Z" fill="white"/>
<path fill-rule="evenodd" clip-rule="evenodd" d="M129.37 10.5181L137.443 22.7483V10.4051C137.443 9.60526 137.613 9.00231 137.956 8.59288C138.3 8.19912 138.758 8 139.34 8C139.94 8 140.414 8.19912 140.758 8.59288C141.103 9.00231 141.275 9.60526 141.275 10.4051V26.7217C141.275 28.5451 140.525 29.459 139.028 29.459C138.651 29.459 138.316 29.4031 138.015 29.2935C137.716 29.1827 137.429 29.0161 137.165 28.7778C136.905 28.5451 136.66 28.2666 136.437 27.95C136.213 27.6356 135.986 27.3112 135.76 26.9779L127.888 14.9009V27.0517C127.888 27.846 127.698 28.4422 127.332 28.8483C126.967 29.2543 126.495 29.459 125.919 29.459C125.329 29.459 124.845 29.2465 124.491 28.8371C124.129 28.4344 123.953 27.8348 123.953 27.0517V11.0416C123.953 10.3592 124.027 9.82787 124.179 9.44529C124.359 9.02021 124.656 8.67231 125.073 8.40048C125.488 8.132 125.933 8 126.412 8C126.795 8 127.113 8.05929 127.382 8.18122C127.654 8.30651 127.888 8.47095 128.089 8.67902C128.291 8.88485 128.503 9.15445 128.713 9.48109C128.924 9.81557 129.143 10.159 129.37 10.5181Z" fill="white"/>
<path fill-rule="evenodd" clip-rule="evenodd" d="M78.3877 35.4639H79.1492V39.3187C79.1492 39.7091 79.2878 40.0033 79.5647 40.2069C79.8461 40.4072 80.151 40.5078 80.4826 40.5078C80.8199 40.5078 81.127 40.4072 81.4106 40.2069C81.6942 40.0089 81.8327 39.7147 81.8327 39.3187V35.4639H82.5977V39.3187C82.5977 39.8758 82.3832 40.302 81.9522 40.6074C81.5178 40.9072 81.0443 41.0616 80.5217 41.0739H80.4792C79.979 41.0739 79.5223 40.9329 79.1035 40.6533C78.6825 40.3736 78.4435 39.9306 78.3877 39.3187V35.4639Z" fill="white"/>
<path fill-rule="evenodd" clip-rule="evenodd" d="M85.2441 35.4639H86.1208L88.8098 39.849V35.4639H89.5088V40.9005H88.6881L85.9421 36.5691V40.9005H85.2441V35.4639Z" fill="white"/>
<path fill-rule="evenodd" clip-rule="evenodd" d="M92.2134 40.9005H92.9125V35.4639H92.2134V40.9005Z" fill="white"/>
<path fill-rule="evenodd" clip-rule="evenodd" d="M95.2219 35.4639H95.9756L97.558 40.0257L99.0734 35.4639H99.8394L97.9075 40.9005H97.1415L95.2219 35.4639Z" fill="white"/>
<path fill-rule="evenodd" clip-rule="evenodd" d="M102.188 35.4639H105.925V36.0411H102.891V37.8041H105.817V38.4417H102.891V40.2561H106.044V40.9005H102.188V35.4639Z" fill="white"/>
<path fill-rule="evenodd" clip-rule="evenodd" d="M108.631 35.4639H111.386C111.769 35.4639 112.093 35.588 112.361 35.8341C112.625 36.0802 112.786 36.4259 112.843 36.8633C112.843 36.9539 112.834 37.0501 112.825 37.1519C112.816 37.2548 112.796 37.3566 112.766 37.4606C112.722 37.5982 112.648 37.7358 112.544 37.8667C112.441 37.9965 112.288 38.1117 112.083 38.2113C112.354 38.3421 112.531 38.52 112.61 38.7337C112.684 38.9529 112.726 39.1722 112.729 39.4015V39.6923C112.726 39.9038 112.735 40.1018 112.756 40.2908C112.778 40.4743 112.863 40.6175 113.02 40.7249V40.9005H112.143C112.108 40.8032 112.083 40.7036 112.066 40.5951C112.051 40.4955 112.035 40.387 112.031 40.2796C112.027 40.2293 112.022 40.1734 112.022 40.1208C112.017 40.0671 112.017 40.0123 112.017 39.9619V39.8825C112.008 39.5693 111.971 39.2807 111.89 39.0301C111.817 38.7762 111.566 38.6218 111.148 38.5592H109.339V40.9005H108.631V35.4639ZM111.208 37.9115C111.224 37.9204 111.237 37.9204 111.255 37.9204H111.3C111.525 37.9204 111.716 37.8264 111.869 37.6374C112.027 37.4483 112.108 37.2369 112.115 37.0121V36.9684C112.108 36.7671 112.022 36.5758 111.86 36.4024C111.695 36.2257 111.416 36.1261 111.031 36.1004H109.339V37.9115H111.208Z" fill="white"/>
<path fill-rule="evenodd" clip-rule="evenodd" d="M115.845 39.1464C115.845 39.5905 115.991 39.9126 116.287 40.1252C116.578 40.3377 116.905 40.4496 117.262 40.463H117.311C117.639 40.463 117.924 40.3892 118.192 40.2449C118.456 40.0994 118.609 39.888 118.648 39.6195C118.653 39.5972 118.657 39.577 118.657 39.5625V39.5043C118.657 39.1553 118.51 38.9215 118.224 38.8018C117.933 38.6788 117.599 38.5848 117.232 38.5121C117.186 38.4975 117.145 38.4919 117.108 38.4819C117.065 38.4763 117.026 38.4685 116.986 38.4561C116.546 38.3633 116.15 38.2134 115.787 38.0087C115.433 37.8062 115.273 37.4046 115.315 36.8073C115.344 36.4258 115.524 36.0947 115.845 35.815C116.166 35.5398 116.631 35.3989 117.247 35.3989C117.86 35.3989 118.35 35.5398 118.721 35.8228C119.086 36.1047 119.256 36.5142 119.229 37.0355H118.53V36.9583C118.53 36.6484 118.404 36.4146 118.141 36.2479C117.88 36.088 117.597 35.9996 117.287 35.9884H117.247C116.936 35.9884 116.663 36.0634 116.41 36.2177C116.161 36.3676 116.03 36.5992 116.017 36.9247C116.055 37.1865 116.204 37.3711 116.463 37.4807C116.722 37.587 117.026 37.6753 117.366 37.7492C117.429 37.7682 117.489 37.7794 117.551 37.7906C117.612 37.8096 117.68 37.8241 117.743 37.8387C118.144 37.9304 118.518 38.0758 118.859 38.266C119.204 38.4561 119.407 38.7917 119.463 39.2683C119.492 39.8567 119.284 40.3008 118.824 40.6151C118.372 40.9216 117.867 41.0794 117.316 41.0906H117.29C116.743 41.0906 116.248 40.9317 115.795 40.6151C115.34 40.3008 115.124 39.8097 115.137 39.1464H115.845Z" fill="white"/>
<path fill-rule="evenodd" clip-rule="evenodd" d="M121.934 40.9005H122.637V35.4639H121.934V40.9005Z" fill="white"/>
<path fill-rule="evenodd" clip-rule="evenodd" d="M126.695 36.0411H124.882V35.4639H129.152V36.0411H127.454V40.9005H126.695V36.0411Z" fill="white"/>
<path fill-rule="evenodd" clip-rule="evenodd" d="M132.326 35.4639H133.2L135.181 40.9005H134.368L133.781 39.3187H131.735L131.209 40.9005H130.397L132.326 35.4639ZM133.552 38.6766L132.793 36.3957L131.907 38.6766H133.552Z" fill="white"/>
<path fill-rule="evenodd" clip-rule="evenodd" d="M137.778 39.1464C137.778 39.5905 137.926 39.9126 138.218 40.1252C138.515 40.3377 138.839 40.4496 139.193 40.463H139.245C139.569 40.463 139.863 40.3892 140.126 40.2449C140.394 40.0994 140.544 39.888 140.583 39.6195C140.588 39.5972 140.588 39.577 140.588 39.5625V39.5043C140.588 39.1553 140.448 38.9215 140.154 38.8018C139.867 38.6788 139.537 38.5848 139.166 38.5121C139.123 38.4975 139.077 38.4919 139.041 38.4819C138.997 38.4763 138.958 38.4685 138.918 38.4561C138.483 38.3633 138.08 38.2134 137.724 38.0087C137.365 37.8062 137.206 37.4046 137.253 36.8073C137.282 36.4258 137.454 36.0947 137.778 35.815C138.099 35.5398 138.567 35.3989 139.179 35.3989C139.793 35.3989 140.283 35.5398 140.658 35.8228C141.024 36.1047 141.194 36.5142 141.163 37.0355H140.464V36.9583C140.464 36.6484 140.336 36.4146 140.075 36.2479C139.815 36.088 139.528 35.9996 139.218 35.9884H139.174C138.868 35.9884 138.596 36.0634 138.345 36.2177C138.096 36.3676 137.961 36.5992 137.948 36.9247C137.988 37.1865 138.139 37.3711 138.399 37.4807C138.654 37.587 138.956 37.6753 139.298 37.7492C139.358 37.7682 139.419 37.7794 139.484 37.7906C139.55 37.8096 139.613 37.8241 139.674 37.8387C140.075 37.9304 140.448 38.0758 140.797 38.266C141.141 38.4561 141.341 38.7917 141.396 39.2683C141.432 39.8567 141.215 40.3008 140.758 40.6151C140.305 40.9216 139.799 41.0794 139.245 41.0906H139.224C138.68 41.0906 138.18 40.9317 137.728 40.6151C137.276 40.3008 137.062 39.8097 137.072 39.1464H137.778Z" fill="white"/>
<path fill-rule="evenodd" clip-rule="evenodd" d="M78.3877 45.1616H79.4352L80.9606 49.7268L82.4826 45.1616H83.5345V50.6016H82.7674V46.2702L81.3089 50.6016H80.6099L79.1492 46.3306V50.6016H78.3877V45.1616Z" fill="white"/>
<path fill-rule="evenodd" clip-rule="evenodd" d="M86.5896 45.1616H87.3456V49.0187C87.3456 49.4136 87.4852 49.7056 87.7621 49.9114C88.038 50.1094 88.3507 50.2134 88.6789 50.2134C89.0185 50.2134 89.3244 50.115 89.6058 49.9136C89.8917 49.7168 90.038 49.4147 90.038 49.0187V45.1616H90.794V49.0187C90.794 49.5736 90.5818 50.0042 90.1441 50.3074C89.7163 50.6117 89.2373 50.7649 88.7169 50.7739H88.67C88.1776 50.7739 87.7231 50.6296 87.2976 50.3533C86.8777 50.0758 86.6421 49.625 86.5896 49.0187V45.1616Z" fill="white"/>
<path fill-rule="evenodd" clip-rule="evenodd" d="M93.8997 45.1616H94.6567V49.9561H97.2956V50.6016H93.8997V45.1616Z" fill="white"/>
<path fill-rule="evenodd" clip-rule="evenodd" d="M100.928 45.7433H99.1145V45.1616H103.384V45.7433H101.683V50.6016H100.928V45.7433Z" fill="white"/>
<path fill-rule="evenodd" clip-rule="evenodd" d="M106.252 50.6027H106.956V45.1616H106.252V50.6027Z" fill="white"/>
<path fill-rule="evenodd" clip-rule="evenodd" d="M110.19 45.1616H111.237L112.756 49.7268L114.279 45.1616H115.334V50.6016H114.569V46.2702L113.108 50.6016H112.411L110.949 46.3306V50.6016H110.19V45.1616Z" fill="white"/>
<path fill-rule="evenodd" clip-rule="evenodd" d="M118.498 45.1616H122.242V45.7433H119.205V47.5052H122.126V48.1451H119.205V49.9561H122.361V50.6016H118.498V45.1616Z" fill="white"/>
<path fill-rule="evenodd" clip-rule="evenodd" d="M127.632 45.1616C127.697 45.1616 127.758 45.165 127.824 45.1762C127.887 45.1795 127.95 45.1907 128.016 45.1996C128.462 45.2947 128.871 45.5475 129.237 45.9659C129.608 46.3821 129.79 46.9727 129.79 47.7367C129.79 47.8576 129.782 47.9828 129.779 48.107C129.764 48.2368 129.751 48.3632 129.729 48.4918C129.647 49.021 129.446 49.5031 129.129 49.9472C128.807 50.3835 128.307 50.6016 127.632 50.6016H125.462V45.1616H127.632ZM127.804 49.9024C128.191 49.9024 128.493 49.6977 128.699 49.2872C128.902 48.8688 129.003 48.4102 129.003 47.9012V47.8341C128.993 47.3262 128.871 46.8564 128.643 46.4358C128.41 46.0118 128.049 45.8004 127.573 45.8004H126.171V49.9024H127.804Z" fill="white"/>
<path fill-rule="evenodd" clip-rule="evenodd" d="M132.835 50.6027H133.543V45.1616H132.835V50.6027Z" fill="white"/>
<path fill-rule="evenodd" clip-rule="evenodd" d="M138.239 45.1616H139.11L141.094 50.6016H140.277L139.692 49.0187H137.649L137.123 50.6016H136.31L138.239 45.1616ZM139.462 48.3788L138.706 46.0979L137.82 48.3788H139.462Z" fill="white"/>
<path fill-rule="evenodd" clip-rule="evenodd" d="M78.3877 54.8604H79.2676L81.9555 59.2478V54.8604H82.6569V60.3071H81.8327L79.089 55.9679V60.3071H78.3877V54.8604Z" fill="white"/>
<path fill-rule="evenodd" clip-rule="evenodd" d="M86.0615 54.8604H86.8164V58.722C86.8164 59.1135 86.9582 59.4077 87.2385 59.6068C87.5155 59.8093 87.8236 59.91 88.1554 59.91C88.4914 59.91 88.7985 59.8127 89.0799 59.6113C89.3636 59.4133 89.5054 59.1169 89.5054 58.722V54.8604H90.2703V58.722C90.2703 59.2757 90.0526 59.7075 89.6182 60.0073C89.186 60.3105 88.7092 60.4716 88.1921 60.4772H88.1464C87.6506 60.4772 87.1961 60.3328 86.7739 60.0543C86.3529 59.7746 86.1128 59.3305 86.0615 58.722V54.8604Z" fill="white"/>
<path fill-rule="evenodd" clip-rule="evenodd" d="M94.1988 58.5529C94.1988 58.9914 94.3417 59.3203 94.6411 59.525C94.9359 59.7386 95.2586 59.8494 95.6182 59.8684H95.6774C95.9934 59.8684 96.2837 59.7935 96.5462 59.6492C96.8131 59.5004 96.9671 59.2945 97.0029 59.0205C97.0096 59.0026 97.0118 58.9824 97.0118 58.9612V58.9086C97.0118 58.5585 96.8678 58.3247 96.5752 58.2061C96.2871 58.0819 95.9543 57.988 95.5835 57.9119C95.5423 57.9018 95.4987 57.8929 95.4619 57.8817C95.4216 57.8795 95.3803 57.8671 95.3401 57.8604C94.9069 57.7676 94.5037 57.6132 94.143 57.4152C93.7835 57.2083 93.6248 56.8089 93.6696 56.2104C93.6986 55.829 93.8739 55.499 94.1988 55.2182C94.5204 54.943 94.9861 54.7998 95.5992 54.7998C96.2156 54.7998 96.7047 54.943 97.0744 55.2305C97.444 55.509 97.6126 55.9117 97.5847 56.4386H96.8845V56.3581C96.8845 56.0505 96.7561 55.8189 96.4982 55.6489C96.2335 55.4878 95.951 55.4028 95.6371 55.3905H95.5992C95.2899 55.3905 95.0185 55.4676 94.765 55.6187C94.5171 55.7708 94.3831 56.0057 94.3675 56.3279C94.4088 56.5874 94.5607 56.7742 94.8164 56.885C95.0766 56.9857 95.3803 57.0774 95.7187 57.1523C95.78 57.168 95.8392 57.1837 95.904 57.196C95.9677 57.2105 96.0336 57.2306 96.0973 57.2418C96.5014 57.3358 96.8689 57.4812 97.214 57.6669C97.5568 57.8604 97.76 58.1916 97.8192 58.6715C97.8549 59.261 97.6394 59.7084 97.1793 60.015C96.726 60.3192 96.22 60.4803 95.6629 60.4893H95.6472C95.1034 60.4893 94.6031 60.3349 94.1486 60.015C93.6964 59.7084 93.4819 59.2174 93.4931 58.5529H94.1988Z" fill="white"/>
<path fill-rule="evenodd" clip-rule="evenodd" d="M102.452 54.8604H103.329L105.312 60.3071H104.497L103.912 58.722H101.867L101.341 60.3071H100.525L102.452 54.8604ZM103.679 58.0821L102.924 55.7978L102.039 58.0821H103.679Z" fill="white"/>
<path fill-rule="evenodd" clip-rule="evenodd" d="M108.254 54.8604H109.133L111.817 59.2478V54.8604H112.522V60.3071H111.699L108.95 55.9679V60.3071H108.254V54.8604Z" fill="white"/>
<path fill-rule="evenodd" clip-rule="evenodd" d="M117.269 55.4399H115.456V54.8604H119.724V55.4399H118.025V60.3071H117.269V55.4399Z" fill="white"/>
<path fill-rule="evenodd" clip-rule="evenodd" d="M123.713 54.8604H124.593L126.569 60.3071H125.75L125.167 58.722H123.128L122.6 60.3071H121.784L123.713 54.8604ZM124.94 58.0821L124.181 55.7978L123.3 58.0821H124.94Z" fill="white"/>
<path fill-rule="evenodd" clip-rule="evenodd" d="M129.628 54.8604H132.376C132.763 54.8604 133.085 54.9891 133.352 55.2352C133.618 55.479 133.777 55.8292 133.83 56.2688C133.83 56.3583 133.827 56.4511 133.816 56.5529C133.81 56.6558 133.789 56.7621 133.761 56.8606C133.714 57.0015 133.64 57.1357 133.538 57.2689C133.432 57.402 133.281 57.5183 133.079 57.6134C133.348 57.7488 133.524 57.9244 133.599 58.1369C133.674 58.354 133.717 58.5743 133.722 58.8025V59.0967C133.717 59.307 133.728 59.505 133.747 59.6919C133.77 59.8753 133.858 60.0219 134.012 60.1281V60.3071H133.134C133.105 60.2031 133.076 60.1058 133.059 59.9961C133.04 59.8921 133.027 59.7881 133.023 59.6807C133.021 59.6303 133.014 59.58 133.014 59.5229C133.013 59.4704 133.013 59.42 133.013 59.3663V59.2847C133 58.9681 132.957 58.684 132.881 58.4311C132.812 58.1806 132.56 58.0217 132.142 57.9624H130.33V60.3071H129.628V54.8604ZM132.198 57.3192C132.216 57.3192 132.232 57.3237 132.247 57.3237H132.284C132.518 57.3237 132.703 57.2286 132.862 57.0395C133.021 56.8494 133.105 56.6458 133.106 56.4165V56.3739C133.105 56.1659 133.014 55.9757 132.848 55.8034C132.684 55.6278 132.404 55.5305 132.022 55.5036H130.33V57.3192H132.198Z" fill="white"/>
<path fill-rule="evenodd" clip-rule="evenodd" d="M138.643 54.8604H139.523L141.503 60.3071H140.688L140.1 58.722H138.057L137.529 60.3071H136.716L138.643 54.8604ZM139.871 58.0821L139.112 55.7978L138.232 58.0821H139.871Z" fill="white"/>
<mask id="mask0_440_6379" style="mask-type:luminance" maskUnits="userSpaceOnUse" x="7" y="3" width="63" height="62">
<path d="M7.6333 3H69.4112V64.8568H7.6333V3Z" fill="white"/>
</mask>
<g mask="url(#mask0_440_6379)">
<path fill-rule="evenodd" clip-rule="evenodd" d="M26.4431 58.3046H32.4274V52.3075H26.4431V58.3046ZM20.8439 48.4448H26.8305V42.4478H20.8439V48.4448ZM17.1878 35.5144H23.1711V29.5195H17.1878V35.5144ZM25.6758 40.3346H31.658V34.3387H25.6758V40.3346ZM37.6345 33.7659H43.62V27.7711H37.6345V33.7659ZM28.7646 30.872H34.7501V24.8749H28.7646V30.872ZM24.9031 22.9575H30.8886V16.9616H24.9031V22.9575ZM36.0891 17.5354H42.0745V11.5451H36.0891V17.5354ZM7.72607 33.8979C7.72607 31.9369 7.91032 30.0229 8.25985 28.1704H12.7557V22.1767H10.0254C11.0226 19.7314 12.3291 17.4381 13.8892 15.3597V18.8308H19.8735V12.8371H15.9996C21.6278 6.77295 29.6658 2.98633 38.5849 2.98633C55.6267 2.98633 69.4392 16.8229 69.4392 33.8979C69.4392 50.9674 55.6267 64.8017 38.5849 64.8017C21.5452 64.8017 7.72607 50.9674 7.72607 33.8979Z" fill="white"/>
<path fill-rule="evenodd" clip-rule="evenodd" d="M26.4431 58.3046H32.4274V52.3075H26.4431V58.3046ZM20.8439 48.4448H26.8305V42.4478H20.8439V48.4448ZM17.1878 35.5144H23.1711V29.5195H17.1878V35.5144ZM25.6758 40.3346H31.658V34.3387H25.6758V40.3346ZM37.6345 33.7659H43.62V27.7711H37.6345V33.7659ZM28.7646 30.872H34.7501V24.8749H28.7646V30.872ZM24.9031 22.9575H30.8886V16.9616H24.9031V22.9575ZM36.0891 17.5354H42.0745V11.5451H36.0891V17.5354ZM7.72607 33.8979C7.72607 31.9369 7.91032 30.0229 8.25985 28.1704H12.7557V22.1767H10.0254C11.0226 19.7314 12.3291 17.4381 13.8892 15.3597V18.8308H19.8735V12.8371H15.9996C21.6278 6.77295 29.6658 2.98633 38.5849 2.98633C55.6267 2.98633 69.4392 16.8229 69.4392 33.8979C69.4392 50.9674 55.6267 64.8017 38.5849 64.8017C21.5452 64.8017 7.72607 50.9674 7.72607 33.8979Z" fill="white"/>
</g>
</svg>
