<svg width="240" height="240" viewBox="0 0 240 240" fill="none" xmlns="http://www.w3.org/2000/svg">
<path d="M190.208 103.334C190.5 103.001 190.542 102.501 190.292 102.126C187.708 98.7924 185.167 95.6674 182.792 92.4174C180.125 88.7507 180.833 85.9174 185.208 85.0424C197.667 82.5007 210.125 79.7924 222.75 78.3341C231.083 77.4174 232.667 77.6674 231.708 87.5007C230.583 99.1257 229.167 108.501 227.5 120.042C225.042 136.876 224.417 138.917 221.25 137.251C220.5 136.834 218.375 135.709 216.833 134.376C215 132.792 212.792 131.251 211.75 130.126C205.417 139.417 200.417 144.834 193.042 151.667C180.292 166.084 156.25 168.251 137.833 152.292C131.958 147.209 126.292 141.917 120.542 136.709C111.333 128.376 100.625 126.751 89.5833 131.584C81.75 135.001 74.5416 139.917 67.2916 144.501C54.3749 152.667 40.7499 157.376 25.3333 153.959C21.9999 153.209 18.7499 151.751 15.6249 150.251C10.8749 147.959 8.66661 144.126 8.62495 138.667C8.58328 126.751 7.83328 114.792 8.04161 102.876C8.20828 93.9174 10.2916 92.5007 19.1666 94.0841C36.7916 97.1674 53.375 93.8341 69.4583 86.5424C80.2083 81.6674 91.3333 78.2091 103.208 76.8757C119.917 75.6257 140 81.9174 153.542 96.7924C159.125 102.917 166.542 107.209 174.75 108.459C180.625 109.251 184.75 108.876 190.208 103.334ZM189.5 90.9174C191.75 94.1674 194.208 97.1257 195.875 100.459C196.75 102.251 198.167 103.917 196.208 106.834C191.125 114.334 179.958 119.459 171 116.626C166.042 115.084 161.25 112.459 157 109.459C149.792 104.459 143.417 98.2091 136.042 93.5841C130.708 90.2091 124.5 87.6674 118.333 86.3757C105.458 83.6674 92.875 86.5007 80.9166 91.3757C60.375 99.7924 39.9166 108.042 15.9583 101.167C15.9583 112.459 16.0416 123.084 15.9166 133.667C15.8333 143.126 14.5416 142.001 23.9583 144.959C25.3749 145.417 26.8333 145.792 28.2916 146.001C41.3749 147.959 52.6666 143.459 63.4166 136.501C70.3333 132.001 77.2499 127.251 84.7083 123.792C100.875 116.292 115.167 119.584 127.708 132.167C133.083 137.542 138.875 142.584 145.042 147.042C155.583 154.667 167.083 160.042 181.042 152.209C192.583 144.542 201.083 136.667 206.75 124.126C209.125 118.876 209.625 119.126 213.625 123.376C214.917 124.751 214.917 124.751 217.375 127.084C219.208 129.334 219.292 127.126 219.417 125.376C221.458 111.542 222.958 98.6674 225.083 84.2924C212.833 86.5424 201.458 88.6674 189.5 90.9174Z" fill="black"/>
</svg>
