<svg width="219" height="204" viewBox="0 0 219 204" fill="none" xmlns="http://www.w3.org/2000/svg">
<path d="M146.313 169.541C150.809 172.51 154.635 174.675 157.969 177.397C159.738 178.846 161.983 181.33 161.789 183.127C161.587 184.999 159.004 187.303 156.949 188.151C150.942 190.641 144.675 192.678 138.435 194.493C137.087 194.886 134.695 194.55 133.643 193.053C132.348 191.797 135.173 189.252 136.54 188.59C141.774 186.112 147.279 184.133 153.146 181.791C149.99 179.707 147.327 178.03 144.711 176.222C137.729 171.371 137.509 166.334 144.406 161.425C154.156 154.47 164.102 147.764 173.973 140.929C175.162 140.11 176.296 139.255 177.449 138.372C179.392 137.209 178.935 136.747 177.113 137.188C173.616 138.087 170.11 138.94 166.613 139.839C160.401 141.431 154.198 143.07 147.977 144.616C146.572 144.972 145.01 145.023 143.652 145.249C141.262 145.635 139.269 144.039 138.346 142.588C137.563 141.349 137.059 139.573 138.917 137.15C142.864 132.138 147.184 127.412 151.514 122.732C161.26 112.165 171.071 101.682 180.565 90.5878C175.898 92.6386 171.174 94.6526 166.572 96.7866C156.391 101.493 146.323 106.393 136.086 110.942C132.581 112.517 128.519 115.048 124.998 111.279C121.691 107.733 124.189 103.929 125.757 100.553C130.731 89.9635 135.947 79.4932 141.051 68.9492C141.561 67.8827 141.913 66.7519 142.794 64.5268C136.11 67.9726 130.169 70.6661 124.647 73.9974C113.018 80.995 101.557 88.344 90.0394 95.5358C82.3706 100.336 78.3869 98.4681 77.7809 89.3667C77.0048 77.9877 76.6286 66.552 76.0385 55.1355C75.9244 53.0151 75.5777 50.9417 75.1924 47.5998C73.7435 49.5302 72.833 50.533 72.1925 51.6739C64.7938 64.7527 57.423 77.85 50.0336 90.9751C48.0934 94.4256 46.6659 98.7359 42.0338 99.1661C37.1878 99.6153 35.4711 95.3142 33.2626 92.0516C30.9795 88.6596 28.8266 85.1931 25.7063 81.8498C25.4873 85.4343 25.2868 88.9909 25.0677 92.5754C24.8851 95.5022 24.9258 98.4562 24.464 101.319C24.3071 102.338 22.8299 104.009 22.1786 103.9C21.0063 103.728 19.8248 103.629 19.041 101.548C18.6958 100.678 18.6013 99.4932 18.6559 98.4466C18.8987 91.269 18.9461 84.0826 19.6819 76.9499C19.912 74.8563 21.7041 71.9896 23.4707 71.2714C24.9491 70.6837 28.1231 72.2581 29.4272 73.8008C32.7806 77.6991 35.5208 82.1547 38.5025 86.3689C39.4809 87.7367 40.4221 89.1601 41.7546 91.0824C43.6207 87.984 45.134 85.4144 46.6938 82.8354C54.7618 69.3565 62.8299 55.8775 70.9258 42.417C71.4922 41.5078 72.1424 40.6539 72.8578 39.8832C75.3385 37.3109 78.9201 37.4302 80.5052 40.6019C81.9598 43.487 83.0428 46.8084 83.307 50.0303C84.2605 61.9274 84.814 73.8812 85.5071 85.8068C85.5737 87.0938 85.7054 88.3436 85.847 90.1213C94.2225 84.9852 102.031 79.9155 110.081 75.3268C119.693 69.8445 129.464 64.6673 139.263 59.5086C142.238 57.9442 145.556 55.4435 148.89 58.2861C152.223 61.1287 150.963 65.0681 149.562 68.3133C145.146 78.5498 140.339 88.6485 135.709 98.7837C134.948 100.406 134.169 102.057 133.967 104.41C140.893 101.445 147.82 98.48 154.738 95.4688C164.91 91.0777 175.044 86.6218 185.225 82.2768C187.652 81.2326 190.422 79.854 192.602 82.4962C194.819 85.2032 193.409 87.9206 191.551 90.1022C183.961 99.0051 176.325 107.917 168.502 116.626C162.176 123.636 155.551 130.37 149.299 138.231C154.247 137.087 159.129 135.74 164.124 134.827C170.42 133.651 176.772 132.633 183.134 132.021C185.078 131.821 188.475 132.821 188.858 133.996C189.399 135.717 188.436 138.85 186.995 140.104C181.68 144.694 175.973 148.906 170.238 152.978C162.774 158.436 155.115 163.524 146.313 169.541Z" fill="black"/>
</svg>
