<svg width="1440" height="1024" viewBox="0 0 1440 1024" fill="none" xmlns="http://www.w3.org/2000/svg">
<g clip-path="url(#clip0_440_4807)">
<rect width="1440" height="1" fill="black" fill-opacity="0.05"/>
<rect y="40.041" width="1440" height="1" fill="black" fill-opacity="0.05"/>
<rect y="80.082" width="1440" height="1" fill="black" fill-opacity="0.05"/>
<rect y="120.123" width="1440" height="1" fill="black" fill-opacity="0.05"/>
<rect y="160.164" width="1440" height="1" fill="black" fill-opacity="0.05"/>
<rect y="200.205" width="1440" height="1" fill="black" fill-opacity="0.05"/>
<rect y="240.246" width="1440" height="1" fill="black" fill-opacity="0.05"/>
<rect y="280.287" width="1440" height="1" fill="black" fill-opacity="0.05"/>
<rect y="320.328" width="1440" height="1" fill="black" fill-opacity="0.05"/>
<rect y="360.369" width="1440" height="1" fill="black" fill-opacity="0.05"/>
<rect y="400.41" width="1440" height="1" fill="black" fill-opacity="0.05"/>
<rect y="440.451" width="1440" height="1" fill="black" fill-opacity="0.05"/>
<rect y="480.492" width="1440" height="1" fill="black" fill-opacity="0.05"/>
<rect y="520.533" width="1440" height="1" fill="black" fill-opacity="0.05"/>
<rect y="560.574" width="1440" height="1" fill="black" fill-opacity="0.05"/>
<rect y="600.615" width="1440" height="1" fill="black" fill-opacity="0.05"/>
<rect y="640.656" width="1440" height="1" fill="black" fill-opacity="0.05"/>
<rect y="680.698" width="1440" height="1" fill="black" fill-opacity="0.05"/>
<rect y="720.739" width="1440" height="1" fill="black" fill-opacity="0.05"/>
<rect y="760.78" width="1440" height="1" fill="black" fill-opacity="0.05"/>
<rect y="800.821" width="1440" height="1" fill="black" fill-opacity="0.05"/>
<rect y="840.862" width="1440" height="1" fill="black" fill-opacity="0.05"/>
<rect y="880.903" width="1440" height="1" fill="black" fill-opacity="0.05"/>
<rect y="920.944" width="1440" height="1" fill="black" fill-opacity="0.05"/>
<rect y="960.985" width="1440" height="1" fill="black" fill-opacity="0.05"/>
<rect y="1001.03" width="1440" height="1" fill="black" fill-opacity="0.05"/>
</g>
<defs>
<clipPath id="clip0_440_4807">
<rect width="1440" height="7808" fill="white"/>
</clipPath>
</defs>
</svg>
