<svg width="396" height="463" viewBox="0 0 396 463" fill="none" xmlns="http://www.w3.org/2000/svg">
<g filter="url(#filter0_f_982_7856)">
<ellipse cx="233.52" cy="231.513" rx="82.8869" ry="81.131" transform="rotate(21.0798 233.52 231.513)" fill="#FDF0D5"/>
</g>
<g filter="url(#filter1_d_982_7856)">
<mask id="path-2-outside-1_982_7856" maskUnits="userSpaceOnUse" x="50.0522" y="105.417" width="386.053" height="342.401" fill="black">
<rect fill="white" x="50.0522" y="105.417" width="386.053" height="342.401"/>
<path fill-rule="evenodd" clip-rule="evenodd" d="M226.078 160.77C275.684 146.391 327.554 174.949 341.933 224.555L296.811 237.634L295.108 238.128L252.114 250.59L209.119 263.052L162.294 276.625C179.861 271.533 198.731 273.628 214.753 282.45C230.776 291.271 242.637 306.095 247.729 323.662L267.028 390.24C249.461 395.332 230.58 393.201 214.539 384.316C198.498 375.431 186.611 360.519 181.493 342.862L162.294 276.625C144.456 281.796 125.294 279.669 109.025 270.711C92.7551 261.754 80.7102 246.701 75.5397 228.862L94.2698 223.433L142.798 209.367L156.865 257.895L162.294 276.625C147.915 227.019 176.472 175.149 226.078 160.77ZM389.95 251.706L400.988 289.787C390.94 292.7 380.141 291.481 370.966 286.399C361.79 281.317 354.991 272.787 352.064 262.688L341.082 224.802C351.13 221.889 361.923 223.087 371.088 228.133C380.252 233.178 387.037 241.658 389.95 251.706Z"/>
</mask>
<path fill-rule="evenodd" clip-rule="evenodd" d="M226.078 160.77C275.684 146.391 327.554 174.949 341.933 224.555L296.811 237.634L295.108 238.128L252.114 250.59L209.119 263.052L162.294 276.625C179.861 271.533 198.731 273.628 214.753 282.45C230.776 291.271 242.637 306.095 247.729 323.662L267.028 390.24C249.461 395.332 230.58 393.201 214.539 384.316C198.498 375.431 186.611 360.519 181.493 342.862L162.294 276.625C144.456 281.796 125.294 279.669 109.025 270.711C92.7551 261.754 80.7102 246.701 75.5397 228.862L94.2698 223.433L142.798 209.367L156.865 257.895L162.294 276.625C147.915 227.019 176.472 175.149 226.078 160.77ZM389.95 251.706L400.988 289.787C390.94 292.7 380.141 291.481 370.966 286.399C361.79 281.317 354.991 272.787 352.064 262.688L341.082 224.802C351.13 221.889 361.923 223.087 371.088 228.133C380.252 233.178 387.037 241.658 389.95 251.706Z" fill="#D9D9D9"/>
<path d="M341.933 224.555L356.34 220.379L360.516 234.786L346.109 238.962L341.933 224.555ZM296.811 237.634L300.987 252.041L296.811 237.634ZM252.114 250.59L247.937 236.183L247.938 236.183L252.114 250.59ZM209.119 263.052L213.295 277.459L213.295 277.459L209.119 263.052ZM214.753 282.45L207.519 295.59L207.519 295.59L214.753 282.45ZM247.729 323.662L262.136 319.486L247.729 323.662ZM267.028 390.24L281.435 386.064L285.611 400.471L271.204 404.647L267.028 390.24ZM214.539 384.316L221.807 371.194L214.539 384.316ZM181.493 342.862L195.9 338.686L181.493 342.862ZM109.025 270.711L116.259 257.571L116.259 257.571L109.025 270.711ZM75.5397 228.862L61.1327 233.038L56.9567 218.632L71.3636 214.456L75.5397 228.862ZM142.798 209.367L138.622 194.96L153.029 190.784L157.205 205.191L142.798 209.367ZM156.865 257.895L142.458 262.071L142.458 262.071L156.865 257.895ZM400.988 289.787L415.395 285.611L419.571 300.018L405.164 304.194L400.988 289.787ZM389.95 251.706L404.357 247.53L404.357 247.53L389.95 251.706ZM370.966 286.399L378.234 273.277L378.234 273.277L370.966 286.399ZM352.064 262.688L337.657 266.864L352.064 262.688ZM341.082 224.802L326.675 228.978L322.499 214.571L336.906 210.395L341.082 224.802ZM371.088 228.133L378.322 214.993L378.322 214.993L371.088 228.133ZM327.526 228.731C315.454 187.081 271.904 163.105 230.254 175.177L221.902 146.363C279.465 129.678 339.655 162.816 356.34 220.379L327.526 228.731ZM292.635 223.227L337.757 210.148L346.109 238.962L300.987 252.041L292.635 223.227ZM290.932 223.721L292.635 223.227L300.987 252.041L299.284 252.535L290.932 223.721ZM247.938 236.183L290.932 223.721L299.284 252.535L256.29 264.997L247.938 236.183ZM204.943 248.645L247.937 236.183L256.29 264.997L213.295 277.459L204.943 248.645ZM158.118 262.218L204.943 248.645L213.295 277.459L166.47 291.032L158.118 262.218ZM207.519 295.59C194.982 288.687 180.216 287.048 166.47 291.032L158.118 262.218C179.506 256.019 202.48 258.57 221.988 269.309L207.519 295.59ZM233.322 327.838C229.338 314.092 220.056 302.492 207.519 295.59L221.988 269.309C241.495 280.049 255.937 298.098 262.136 319.486L233.322 327.838ZM252.621 394.416L233.322 327.838L262.136 319.486L281.435 386.064L252.621 394.416ZM221.807 371.194C234.367 378.151 249.13 379.811 262.852 375.833L271.204 404.647C249.792 410.854 226.793 408.251 207.271 397.437L221.807 371.194ZM195.9 338.686C199.918 352.546 209.245 364.236 221.807 371.194L207.271 397.437C187.752 386.626 173.305 368.492 167.086 347.038L195.9 338.686ZM176.701 272.449L195.9 338.686L167.086 347.038L147.887 280.801L176.701 272.449ZM116.259 257.571C129.044 264.61 144.101 266.281 158.118 262.218L166.47 291.032C144.811 297.31 121.545 294.727 101.79 283.851L116.259 257.571ZM89.9466 224.686C94.0096 238.704 103.474 250.532 116.259 257.571L101.79 283.851C82.0358 272.975 67.4108 254.698 61.1327 233.038L89.9466 224.686ZM98.4459 237.84L79.7157 243.269L71.3636 214.456L90.0938 209.026L98.4459 237.84ZM146.974 223.774L98.4459 237.84L90.0938 209.026L138.622 194.96L146.974 223.774ZM142.458 262.071L128.391 213.543L157.205 205.191L171.272 253.719L142.458 262.071ZM147.887 280.801L142.458 262.071L171.272 253.719L176.701 272.449L147.887 280.801ZM230.254 175.177C188.605 187.25 164.628 230.8 176.701 272.449L147.887 280.801C131.201 223.238 164.339 163.048 221.902 146.363L230.254 175.177ZM386.581 293.963L375.543 255.882L404.357 247.53L415.395 285.611L386.581 293.963ZM378.234 273.277C383.927 276.431 390.609 277.178 396.812 275.38L405.164 304.194C391.271 308.221 376.354 306.531 363.697 299.52L378.234 273.277ZM366.471 258.512C368.298 264.814 372.537 270.122 378.234 273.277L363.697 299.52C351.044 292.511 341.685 280.761 337.657 266.864L366.471 258.512ZM355.489 220.626L366.471 258.512L337.657 266.864L326.675 228.978L355.489 220.626ZM363.854 241.273C358.174 238.146 351.485 237.404 345.258 239.209L336.906 210.395C350.775 206.375 365.673 208.029 378.322 214.993L363.854 241.273ZM375.543 255.882C373.738 249.655 369.533 244.4 363.854 241.273L378.322 214.993C390.972 221.957 400.337 233.661 404.357 247.53L375.543 255.882Z" fill="#FDFDFD" mask="url(#path-2-outside-1_982_7856)"/>
<path d="M267.028 390.24L247.729 323.662L181.493 342.862C186.611 360.519 198.498 375.431 214.539 384.316C230.58 393.201 249.461 395.332 267.028 390.24Z" fill="#005696"/>
<path d="M267.028 390.24L247.729 323.662L181.493 342.862C186.611 360.519 198.498 375.431 214.539 384.316C230.58 393.201 249.461 395.332 267.028 390.24Z" stroke="black"/>
<path d="M162.294 276.625L181.493 342.862L247.729 323.662C242.637 306.095 230.776 291.271 214.753 282.449C198.731 273.628 179.861 271.533 162.294 276.625Z" fill="#003049"/>
<path d="M162.294 276.625L181.493 342.862L247.729 323.662C242.637 306.095 230.776 291.271 214.753 282.449C198.731 273.628 179.861 271.533 162.294 276.625Z" stroke="black"/>
<path d="M400.988 289.787L389.95 251.706L352.064 262.688C354.991 272.787 361.79 281.317 370.966 286.399C380.141 291.481 390.94 292.7 400.988 289.787Z" fill="#005696"/>
<path d="M400.988 289.787L389.95 251.706L352.064 262.688C354.991 272.787 361.79 281.317 370.966 286.399C380.141 291.481 390.94 292.7 400.988 289.787Z" stroke="black"/>
<path d="M341.082 224.802L352.064 262.688L389.95 251.706C387.037 241.658 380.252 233.178 371.088 228.133C361.923 223.087 351.13 221.889 341.082 224.802Z" fill="#003049"/>
<path d="M341.082 224.802L352.064 262.688L389.95 251.706C387.037 241.658 380.252 233.178 371.088 228.133C361.923 223.087 351.13 221.889 341.082 224.802Z" stroke="black"/>
<path d="M75.5397 228.862L142.798 209.367L162.294 276.625C144.456 281.796 125.294 279.668 109.025 270.711C92.7551 261.754 80.7102 246.7 75.5397 228.862Z" fill="#003049"/>
<path d="M75.5397 228.862L142.798 209.367L162.294 276.625C144.456 281.796 125.294 279.668 109.025 270.711C92.7551 261.754 80.7102 246.7 75.5397 228.862Z" stroke="black"/>
<path d="M94.2699 223.433L142.798 209.367L156.865 257.895C143.994 261.626 130.169 260.091 118.43 253.628C106.691 247.165 98.0006 236.304 94.2699 223.433Z" fill="#005696"/>
<path d="M94.2699 223.433L142.798 209.367L156.865 257.895C143.994 261.626 130.169 260.091 118.43 253.628C106.691 247.165 98.0006 236.304 94.2699 223.433Z" stroke="black"/>
<path fill-rule="evenodd" clip-rule="evenodd" d="M162.294 276.625L341.933 224.555C327.554 174.949 275.684 146.391 226.078 160.77C176.472 175.149 147.915 227.019 162.294 276.625Z" fill="#780000"/>
<path fill-rule="evenodd" clip-rule="evenodd" d="M252.114 250.59L341.933 224.555C327.554 174.949 275.684 146.391 226.078 160.77L252.114 250.59Z" fill="#BF1E2D"/>
<path fill-rule="evenodd" clip-rule="evenodd" d="M252.114 250.59L341.933 224.555C327.554 174.949 275.684 146.391 226.078 160.77L252.114 250.59Z" fill="#BF1E2D"/>
<path fill-rule="evenodd" clip-rule="evenodd" d="M295.108 238.128C288.225 214.383 263.396 200.713 239.651 207.596C215.906 214.479 202.236 239.307 209.119 263.052C209.119 263.052 209.119 263.052 209.119 263.052L295.108 238.128Z" fill="#BF1E2D"/>
<path fill-rule="evenodd" clip-rule="evenodd" d="M252.114 250.59L296.811 237.634C289.928 213.889 264.337 200.44 239.651 207.596L252.114 250.59Z" fill="#BF1E2D"/>
<path fill-rule="evenodd" clip-rule="evenodd" d="M252.114 250.59L296.811 237.634C289.928 213.889 264.337 200.44 239.651 207.596L252.114 250.59Z" fill="#780000"/>
<path d="M131.076 232.607C132.03 235.898 130.136 239.34 126.844 240.294C123.553 241.248 120.111 239.353 119.157 236.062C118.203 232.77 120.098 229.329 123.389 228.375C126.681 227.421 130.122 229.315 131.076 232.607Z" fill="#D9D9D9"/>
<path d="M131.076 232.607C132.03 235.898 130.136 239.34 126.844 240.294C123.553 241.248 120.111 239.353 119.157 236.062C118.203 232.77 120.098 229.329 123.389 228.375C126.681 227.421 130.122 229.315 131.076 232.607Z" stroke="black"/>
</g>
<defs>
<filter id="filter0_f_982_7856" x="0.835999" y="0.13147" width="465.368" height="462.764" filterUnits="userSpaceOnUse" color-interpolation-filters="sRGB">
<feFlood flood-opacity="0" result="BackgroundImageFix"/>
<feBlend mode="normal" in="SourceGraphic" in2="BackgroundImageFix" result="shape"/>
<feGaussianBlur stdDeviation="75" result="effect1_foregroundBlur_982_7856"/>
</filter>
<filter id="filter1_d_982_7856" x="52.9567" y="124" width="370.614" height="312.935" filterUnits="userSpaceOnUse" color-interpolation-filters="sRGB">
<feFlood flood-opacity="0" result="BackgroundImageFix"/>
<feColorMatrix in="SourceAlpha" type="matrix" values="0 0 0 0 0 0 0 0 0 0 0 0 0 0 0 0 0 0 127 0" result="hardAlpha"/>
<feOffset dy="4"/>
<feGaussianBlur stdDeviation="2"/>
<feComposite in2="hardAlpha" operator="out"/>
<feColorMatrix type="matrix" values="0 0 0 0 0 0 0 0 0 0 0 0 0 0 0 0 0 0 0.25 0"/>
<feBlend mode="normal" in2="BackgroundImageFix" result="effect1_dropShadow_982_7856"/>
<feBlend mode="normal" in="SourceGraphic" in2="effect1_dropShadow_982_7856" result="shape"/>
</filter>
</defs>
</svg>
