<svg width="702" height="88" viewBox="0 0 702 88" fill="none" xmlns="http://www.w3.org/2000/svg">
<g filter="url(#filter0_d_485_11097)">
<mask id="path-1-outside-1_485_11097" maskUnits="userSpaceOnUse" x="0" y="0" width="698" height="84" fill="black">
<rect fill="white" width="698" height="84"/>
<path d="M32.256 61.336C28.8 61.336 25.5787 60.7813 22.592 59.672C19.648 58.52 17.088 56.8987 14.912 54.808C12.736 52.7173 11.0293 50.264 9.792 47.448C8.59733 44.632 8 41.5387 8 38.168C8 34.7973 8.59733 31.704 9.792 28.888C11.0293 26.072 12.736 23.6187 14.912 21.528C17.1307 19.4373 19.712 17.8373 22.656 16.728C25.6 15.576 28.8213 15 32.32 15C36.2027 15 39.7013 15.6827 42.816 17.048C45.9733 18.3707 48.6187 20.3333 50.752 22.936L44.096 29.08C42.56 27.3307 40.8533 26.0293 38.976 25.176C37.0987 24.28 35.0507 23.832 32.832 23.832C30.7413 23.832 28.8213 24.1733 27.072 24.856C25.3227 25.5387 23.808 26.52 22.528 27.8C21.248 29.08 20.2453 30.5947 19.52 32.344C18.8373 34.0933 18.496 36.0347 18.496 38.168C18.496 40.3013 18.8373 42.2427 19.52 43.992C20.2453 45.7413 21.248 47.256 22.528 48.536C23.808 49.816 25.3227 50.7973 27.072 51.48C28.8213 52.1627 30.7413 52.504 32.832 52.504C35.0507 52.504 37.0987 52.0773 38.976 51.224C40.8533 50.328 42.56 48.984 44.096 47.192L50.752 53.336C48.6187 55.9387 45.9733 57.9227 42.816 59.288C39.7013 60.6533 36.1813 61.336 32.256 61.336Z"/>
<path d="M106.736 75.336C103.195 75.336 99.9093 74.76 96.88 73.608C93.8933 72.456 91.2907 70.8347 89.072 68.744C86.896 66.6533 85.1893 64.2 83.952 61.384C82.7573 58.568 82.16 55.496 82.16 52.168C82.16 48.84 82.7573 45.768 83.952 42.952C85.1893 40.136 86.9173 37.6827 89.136 35.592C91.3547 33.5013 93.9573 31.88 96.944 30.728C99.9307 29.576 103.173 29 106.672 29C110.213 29 113.456 29.576 116.4 30.728C119.387 31.88 121.968 33.5013 124.144 35.592C126.363 37.6827 128.091 40.136 129.328 42.952C130.565 45.7253 131.184 48.7973 131.184 52.168C131.184 55.496 130.565 58.5893 129.328 61.448C128.091 64.264 126.363 66.7173 124.144 68.808C121.968 70.856 119.387 72.456 116.4 73.608C113.456 74.76 110.235 75.336 106.736 75.336ZM106.672 66.504C108.677 66.504 110.512 66.1627 112.176 65.48C113.883 64.7973 115.376 63.816 116.656 62.536C117.936 61.256 118.917 59.7413 119.6 57.992C120.325 56.2427 120.688 54.3013 120.688 52.168C120.688 50.0347 120.325 48.0933 119.6 46.344C118.917 44.5947 117.936 43.08 116.656 41.8C115.419 40.52 113.947 39.5387 112.24 38.856C110.533 38.1733 108.677 37.832 106.672 37.832C104.667 37.832 102.811 38.1733 101.104 38.856C99.44 39.5387 97.968 40.52 96.688 41.8C95.408 43.08 94.4053 44.5947 93.68 46.344C92.9973 48.0933 92.656 50.0347 92.656 52.168C92.656 54.2587 92.9973 56.2 93.68 57.992C94.4053 59.7413 95.3867 61.256 96.624 62.536C97.904 63.816 99.3973 64.7973 101.104 65.48C102.811 66.1627 104.667 66.504 106.672 66.504Z"/>
<path d="M167.136 69.568V24.768H175.712L202.144 57.024H197.984V24.768H208.224V69.568H199.712L173.216 37.312H177.376V69.568H167.136Z"/>
<path d="M256.264 60.568V24.216H241.927V15.768H280.967V24.216H266.632V60.568H256.264Z"/>
<path d="M306.568 53.568L326.536 8.768H336.776L356.808 53.568H345.928L329.544 14.016H333.64L317.192 53.568H306.568ZM316.552 43.968L319.304 36.096H342.344L345.16 43.968H316.552Z"/>
<path d="M410.431 56.336C406.975 56.336 403.754 55.7813 400.767 54.672C397.823 53.52 395.263 51.8987 393.087 49.808C390.911 47.7173 389.204 45.264 387.967 42.448C386.772 39.632 386.175 36.5387 386.175 33.168C386.175 29.7973 386.772 26.704 387.967 23.888C389.204 21.072 390.911 18.6187 393.087 16.528C395.306 14.4373 397.887 12.8373 400.831 11.728C403.775 10.576 406.996 10 410.495 10C414.378 10 417.876 10.6827 420.991 12.048C424.148 13.3707 426.794 15.3333 428.927 17.936L422.271 24.08C420.735 22.3307 419.028 21.0293 417.151 20.176C415.274 19.28 413.226 18.832 411.007 18.832C408.916 18.832 406.996 19.1733 405.247 19.856C403.498 20.5387 401.983 21.52 400.703 22.8C399.423 24.08 398.42 25.5947 397.695 27.344C397.012 29.0933 396.671 31.0347 396.671 33.168C396.671 35.3013 397.012 37.2427 397.695 38.992C398.42 40.7413 399.423 42.256 400.703 43.536C401.983 44.816 403.498 45.7973 405.247 46.48C406.996 47.1627 408.916 47.504 411.007 47.504C413.226 47.504 415.274 47.0773 417.151 46.224C419.028 45.328 420.735 43.984 422.271 42.192L428.927 48.336C426.794 50.9387 424.148 52.9227 420.991 54.288C417.876 55.6533 414.356 56.336 410.431 56.336Z"/>
<path d="M472.931 66.568V30.216L458.595 31.216V21.768L497.635 18.768V28.216L483.299 30.216V66.568H472.931Z"/>
<path d="M597.563 65.336C591.205 65.336 586.234 63.5653 582.651 60.024C579.067 56.4827 577.275 51.4267 577.275 44.856V19.768H587.643V44.472C587.643 48.7387 588.517 51.8107 590.267 53.688C592.016 55.5653 594.469 56.504 597.627 56.504C600.784 56.504 603.237 55.5653 604.987 53.688C606.736 51.8107 607.611 48.7387 607.611 44.472V19.768H617.851V44.856C617.851 51.4267 616.059 56.4827 612.475 60.024C608.891 63.5653 603.92 65.336 597.563 65.336Z"/>
<path d="M670.976 54.336C667.392 54.336 663.957 53.8667 660.672 52.928C657.387 51.9467 654.741 50.688 652.736 49.152L656.256 41.344C658.176 42.7093 660.437 43.84 663.04 44.736C665.685 45.5893 668.352 46.016 671.04 46.016C673.088 46.016 674.731 45.824 675.968 45.44C677.248 45.0133 678.187 44.4373 678.784 43.712C679.381 42.9867 679.68 42.1547 679.68 41.216C679.68 40.0213 679.211 39.0827 678.272 38.4C677.333 37.6747 676.096 37.0987 674.56 36.672C673.024 36.2027 671.317 35.776 669.44 35.392C667.605 34.9653 665.749 34.4533 663.872 33.856C662.037 33.2587 660.352 32.4907 658.816 31.552C657.28 30.6133 656.021 29.376 655.04 27.84C654.101 26.304 653.632 24.3413 653.632 21.952C653.632 19.392 654.315 17.0667 655.68 14.976C657.088 12.8427 659.179 11.1573 661.952 9.92C664.768 8.64 668.288 8 672.512 8C675.328 8 678.101 8.34133 680.832 9.024C683.563 9.664 685.973 10.6453 688.064 11.968L684.864 19.84C682.773 18.6453 680.683 17.7707 678.592 17.216C676.501 16.6187 674.453 16.32 672.448 16.32C670.443 16.32 668.8 16.5547 667.52 17.024C666.24 17.4933 665.323 18.112 664.768 18.88C664.213 19.6053 663.936 20.4587 663.936 21.44C663.936 22.592 664.405 23.5307 665.344 24.256C666.283 24.9387 667.52 25.4933 669.056 25.92C670.592 26.3467 672.277 26.7733 674.112 27.2C675.989 27.6267 677.845 28.1173 679.68 28.672C681.557 29.2267 683.264 29.9733 684.8 30.912C686.336 31.8507 687.573 33.088 688.512 34.624C689.493 36.16 689.984 38.1013 689.984 40.448C689.984 42.9653 689.28 45.2693 687.872 47.36C686.464 49.4507 684.352 51.136 681.536 52.416C678.763 53.696 675.243 54.336 670.976 54.336Z"/>
</mask>
<path d="M32.256 61.336C28.8 61.336 25.5787 60.7813 22.592 59.672C19.648 58.52 17.088 56.8987 14.912 54.808C12.736 52.7173 11.0293 50.264 9.792 47.448C8.59733 44.632 8 41.5387 8 38.168C8 34.7973 8.59733 31.704 9.792 28.888C11.0293 26.072 12.736 23.6187 14.912 21.528C17.1307 19.4373 19.712 17.8373 22.656 16.728C25.6 15.576 28.8213 15 32.32 15C36.2027 15 39.7013 15.6827 42.816 17.048C45.9733 18.3707 48.6187 20.3333 50.752 22.936L44.096 29.08C42.56 27.3307 40.8533 26.0293 38.976 25.176C37.0987 24.28 35.0507 23.832 32.832 23.832C30.7413 23.832 28.8213 24.1733 27.072 24.856C25.3227 25.5387 23.808 26.52 22.528 27.8C21.248 29.08 20.2453 30.5947 19.52 32.344C18.8373 34.0933 18.496 36.0347 18.496 38.168C18.496 40.3013 18.8373 42.2427 19.52 43.992C20.2453 45.7413 21.248 47.256 22.528 48.536C23.808 49.816 25.3227 50.7973 27.072 51.48C28.8213 52.1627 30.7413 52.504 32.832 52.504C35.0507 52.504 37.0987 52.0773 38.976 51.224C40.8533 50.328 42.56 48.984 44.096 47.192L50.752 53.336C48.6187 55.9387 45.9733 57.9227 42.816 59.288C39.7013 60.6533 36.1813 61.336 32.256 61.336Z" fill="#780000"/>
<path d="M106.736 75.336C103.195 75.336 99.9093 74.76 96.88 73.608C93.8933 72.456 91.2907 70.8347 89.072 68.744C86.896 66.6533 85.1893 64.2 83.952 61.384C82.7573 58.568 82.16 55.496 82.16 52.168C82.16 48.84 82.7573 45.768 83.952 42.952C85.1893 40.136 86.9173 37.6827 89.136 35.592C91.3547 33.5013 93.9573 31.88 96.944 30.728C99.9307 29.576 103.173 29 106.672 29C110.213 29 113.456 29.576 116.4 30.728C119.387 31.88 121.968 33.5013 124.144 35.592C126.363 37.6827 128.091 40.136 129.328 42.952C130.565 45.7253 131.184 48.7973 131.184 52.168C131.184 55.496 130.565 58.5893 129.328 61.448C128.091 64.264 126.363 66.7173 124.144 68.808C121.968 70.856 119.387 72.456 116.4 73.608C113.456 74.76 110.235 75.336 106.736 75.336ZM106.672 66.504C108.677 66.504 110.512 66.1627 112.176 65.48C113.883 64.7973 115.376 63.816 116.656 62.536C117.936 61.256 118.917 59.7413 119.6 57.992C120.325 56.2427 120.688 54.3013 120.688 52.168C120.688 50.0347 120.325 48.0933 119.6 46.344C118.917 44.5947 117.936 43.08 116.656 41.8C115.419 40.52 113.947 39.5387 112.24 38.856C110.533 38.1733 108.677 37.832 106.672 37.832C104.667 37.832 102.811 38.1733 101.104 38.856C99.44 39.5387 97.968 40.52 96.688 41.8C95.408 43.08 94.4053 44.5947 93.68 46.344C92.9973 48.0933 92.656 50.0347 92.656 52.168C92.656 54.2587 92.9973 56.2 93.68 57.992C94.4053 59.7413 95.3867 61.256 96.624 62.536C97.904 63.816 99.3973 64.7973 101.104 65.48C102.811 66.1627 104.667 66.504 106.672 66.504Z" fill="#780000"/>
<path d="M167.136 69.568V24.768H175.712L202.144 57.024H197.984V24.768H208.224V69.568H199.712L173.216 37.312H177.376V69.568H167.136Z" fill="#780000"/>
<path d="M256.264 60.568V24.216H241.927V15.768H280.967V24.216H266.632V60.568H256.264Z" fill="#780000"/>
<path d="M306.568 53.568L326.536 8.768H336.776L356.808 53.568H345.928L329.544 14.016H333.64L317.192 53.568H306.568ZM316.552 43.968L319.304 36.096H342.344L345.16 43.968H316.552Z" fill="#780000"/>
<path d="M410.431 56.336C406.975 56.336 403.754 55.7813 400.767 54.672C397.823 53.52 395.263 51.8987 393.087 49.808C390.911 47.7173 389.204 45.264 387.967 42.448C386.772 39.632 386.175 36.5387 386.175 33.168C386.175 29.7973 386.772 26.704 387.967 23.888C389.204 21.072 390.911 18.6187 393.087 16.528C395.306 14.4373 397.887 12.8373 400.831 11.728C403.775 10.576 406.996 10 410.495 10C414.378 10 417.876 10.6827 420.991 12.048C424.148 13.3707 426.794 15.3333 428.927 17.936L422.271 24.08C420.735 22.3307 419.028 21.0293 417.151 20.176C415.274 19.28 413.226 18.832 411.007 18.832C408.916 18.832 406.996 19.1733 405.247 19.856C403.498 20.5387 401.983 21.52 400.703 22.8C399.423 24.08 398.42 25.5947 397.695 27.344C397.012 29.0933 396.671 31.0347 396.671 33.168C396.671 35.3013 397.012 37.2427 397.695 38.992C398.42 40.7413 399.423 42.256 400.703 43.536C401.983 44.816 403.498 45.7973 405.247 46.48C406.996 47.1627 408.916 47.504 411.007 47.504C413.226 47.504 415.274 47.0773 417.151 46.224C419.028 45.328 420.735 43.984 422.271 42.192L428.927 48.336C426.794 50.9387 424.148 52.9227 420.991 54.288C417.876 55.6533 414.356 56.336 410.431 56.336Z" fill="#780000"/>
<path d="M472.931 66.568V30.216L458.595 31.216V21.768L497.635 18.768V28.216L483.299 30.216V66.568H472.931Z" fill="#780000"/>
<path d="M597.563 65.336C591.205 65.336 586.234 63.5653 582.651 60.024C579.067 56.4827 577.275 51.4267 577.275 44.856V19.768H587.643V44.472C587.643 48.7387 588.517 51.8107 590.267 53.688C592.016 55.5653 594.469 56.504 597.627 56.504C600.784 56.504 603.237 55.5653 604.987 53.688C606.736 51.8107 607.611 48.7387 607.611 44.472V19.768H617.851V44.856C617.851 51.4267 616.059 56.4827 612.475 60.024C608.891 63.5653 603.92 65.336 597.563 65.336Z" fill="#780000"/>
<path d="M670.976 54.336C667.392 54.336 663.957 53.8667 660.672 52.928C657.387 51.9467 654.741 50.688 652.736 49.152L656.256 41.344C658.176 42.7093 660.437 43.84 663.04 44.736C665.685 45.5893 668.352 46.016 671.04 46.016C673.088 46.016 674.731 45.824 675.968 45.44C677.248 45.0133 678.187 44.4373 678.784 43.712C679.381 42.9867 679.68 42.1547 679.68 41.216C679.68 40.0213 679.211 39.0827 678.272 38.4C677.333 37.6747 676.096 37.0987 674.56 36.672C673.024 36.2027 671.317 35.776 669.44 35.392C667.605 34.9653 665.749 34.4533 663.872 33.856C662.037 33.2587 660.352 32.4907 658.816 31.552C657.28 30.6133 656.021 29.376 655.04 27.84C654.101 26.304 653.632 24.3413 653.632 21.952C653.632 19.392 654.315 17.0667 655.68 14.976C657.088 12.8427 659.179 11.1573 661.952 9.92C664.768 8.64 668.288 8 672.512 8C675.328 8 678.101 8.34133 680.832 9.024C683.563 9.664 685.973 10.6453 688.064 11.968L684.864 19.84C682.773 18.6453 680.683 17.7707 678.592 17.216C676.501 16.6187 674.453 16.32 672.448 16.32C670.443 16.32 668.8 16.5547 667.52 17.024C666.24 17.4933 665.323 18.112 664.768 18.88C664.213 19.6053 663.936 20.4587 663.936 21.44C663.936 22.592 664.405 23.5307 665.344 24.256C666.283 24.9387 667.52 25.4933 669.056 25.92C670.592 26.3467 672.277 26.7733 674.112 27.2C675.989 27.6267 677.845 28.1173 679.68 28.672C681.557 29.2267 683.264 29.9733 684.8 30.912C686.336 31.8507 687.573 33.088 688.512 34.624C689.493 36.16 689.984 38.1013 689.984 40.448C689.984 42.9653 689.28 45.2693 687.872 47.36C686.464 49.4507 684.352 51.136 681.536 52.416C678.763 53.696 675.243 54.336 670.976 54.336Z" fill="#780000"/>
<path d="M32.256 61.336C28.8 61.336 25.5787 60.7813 22.592 59.672C19.648 58.52 17.088 56.8987 14.912 54.808C12.736 52.7173 11.0293 50.264 9.792 47.448C8.59733 44.632 8 41.5387 8 38.168C8 34.7973 8.59733 31.704 9.792 28.888C11.0293 26.072 12.736 23.6187 14.912 21.528C17.1307 19.4373 19.712 17.8373 22.656 16.728C25.6 15.576 28.8213 15 32.32 15C36.2027 15 39.7013 15.6827 42.816 17.048C45.9733 18.3707 48.6187 20.3333 50.752 22.936L44.096 29.08C42.56 27.3307 40.8533 26.0293 38.976 25.176C37.0987 24.28 35.0507 23.832 32.832 23.832C30.7413 23.832 28.8213 24.1733 27.072 24.856C25.3227 25.5387 23.808 26.52 22.528 27.8C21.248 29.08 20.2453 30.5947 19.52 32.344C18.8373 34.0933 18.496 36.0347 18.496 38.168C18.496 40.3013 18.8373 42.2427 19.52 43.992C20.2453 45.7413 21.248 47.256 22.528 48.536C23.808 49.816 25.3227 50.7973 27.072 51.48C28.8213 52.1627 30.7413 52.504 32.832 52.504C35.0507 52.504 37.0987 52.0773 38.976 51.224C40.8533 50.328 42.56 48.984 44.096 47.192L50.752 53.336C48.6187 55.9387 45.9733 57.9227 42.816 59.288C39.7013 60.6533 36.1813 61.336 32.256 61.336Z" stroke="white" stroke-width="16" mask="url(#path-1-outside-1_485_11097)"/>
<path d="M106.736 75.336C103.195 75.336 99.9093 74.76 96.88 73.608C93.8933 72.456 91.2907 70.8347 89.072 68.744C86.896 66.6533 85.1893 64.2 83.952 61.384C82.7573 58.568 82.16 55.496 82.16 52.168C82.16 48.84 82.7573 45.768 83.952 42.952C85.1893 40.136 86.9173 37.6827 89.136 35.592C91.3547 33.5013 93.9573 31.88 96.944 30.728C99.9307 29.576 103.173 29 106.672 29C110.213 29 113.456 29.576 116.4 30.728C119.387 31.88 121.968 33.5013 124.144 35.592C126.363 37.6827 128.091 40.136 129.328 42.952C130.565 45.7253 131.184 48.7973 131.184 52.168C131.184 55.496 130.565 58.5893 129.328 61.448C128.091 64.264 126.363 66.7173 124.144 68.808C121.968 70.856 119.387 72.456 116.4 73.608C113.456 74.76 110.235 75.336 106.736 75.336ZM106.672 66.504C108.677 66.504 110.512 66.1627 112.176 65.48C113.883 64.7973 115.376 63.816 116.656 62.536C117.936 61.256 118.917 59.7413 119.6 57.992C120.325 56.2427 120.688 54.3013 120.688 52.168C120.688 50.0347 120.325 48.0933 119.6 46.344C118.917 44.5947 117.936 43.08 116.656 41.8C115.419 40.52 113.947 39.5387 112.24 38.856C110.533 38.1733 108.677 37.832 106.672 37.832C104.667 37.832 102.811 38.1733 101.104 38.856C99.44 39.5387 97.968 40.52 96.688 41.8C95.408 43.08 94.4053 44.5947 93.68 46.344C92.9973 48.0933 92.656 50.0347 92.656 52.168C92.656 54.2587 92.9973 56.2 93.68 57.992C94.4053 59.7413 95.3867 61.256 96.624 62.536C97.904 63.816 99.3973 64.7973 101.104 65.48C102.811 66.1627 104.667 66.504 106.672 66.504Z" stroke="white" stroke-width="16" mask="url(#path-1-outside-1_485_11097)"/>
<path d="M167.136 69.568V24.768H175.712L202.144 57.024H197.984V24.768H208.224V69.568H199.712L173.216 37.312H177.376V69.568H167.136Z" stroke="white" stroke-width="16" mask="url(#path-1-outside-1_485_11097)"/>
<path d="M256.264 60.568V24.216H241.927V15.768H280.967V24.216H266.632V60.568H256.264Z" stroke="white" stroke-width="16" mask="url(#path-1-outside-1_485_11097)"/>
<path d="M306.568 53.568L326.536 8.768H336.776L356.808 53.568H345.928L329.544 14.016H333.64L317.192 53.568H306.568ZM316.552 43.968L319.304 36.096H342.344L345.16 43.968H316.552Z" stroke="white" stroke-width="16" mask="url(#path-1-outside-1_485_11097)"/>
<path d="M410.431 56.336C406.975 56.336 403.754 55.7813 400.767 54.672C397.823 53.52 395.263 51.8987 393.087 49.808C390.911 47.7173 389.204 45.264 387.967 42.448C386.772 39.632 386.175 36.5387 386.175 33.168C386.175 29.7973 386.772 26.704 387.967 23.888C389.204 21.072 390.911 18.6187 393.087 16.528C395.306 14.4373 397.887 12.8373 400.831 11.728C403.775 10.576 406.996 10 410.495 10C414.378 10 417.876 10.6827 420.991 12.048C424.148 13.3707 426.794 15.3333 428.927 17.936L422.271 24.08C420.735 22.3307 419.028 21.0293 417.151 20.176C415.274 19.28 413.226 18.832 411.007 18.832C408.916 18.832 406.996 19.1733 405.247 19.856C403.498 20.5387 401.983 21.52 400.703 22.8C399.423 24.08 398.42 25.5947 397.695 27.344C397.012 29.0933 396.671 31.0347 396.671 33.168C396.671 35.3013 397.012 37.2427 397.695 38.992C398.42 40.7413 399.423 42.256 400.703 43.536C401.983 44.816 403.498 45.7973 405.247 46.48C406.996 47.1627 408.916 47.504 411.007 47.504C413.226 47.504 415.274 47.0773 417.151 46.224C419.028 45.328 420.735 43.984 422.271 42.192L428.927 48.336C426.794 50.9387 424.148 52.9227 420.991 54.288C417.876 55.6533 414.356 56.336 410.431 56.336Z" stroke="white" stroke-width="16" mask="url(#path-1-outside-1_485_11097)"/>
<path d="M472.931 66.568V30.216L458.595 31.216V21.768L497.635 18.768V28.216L483.299 30.216V66.568H472.931Z" stroke="white" stroke-width="16" mask="url(#path-1-outside-1_485_11097)"/>
<path d="M597.563 65.336C591.205 65.336 586.234 63.5653 582.651 60.024C579.067 56.4827 577.275 51.4267 577.275 44.856V19.768H587.643V44.472C587.643 48.7387 588.517 51.8107 590.267 53.688C592.016 55.5653 594.469 56.504 597.627 56.504C600.784 56.504 603.237 55.5653 604.987 53.688C606.736 51.8107 607.611 48.7387 607.611 44.472V19.768H617.851V44.856C617.851 51.4267 616.059 56.4827 612.475 60.024C608.891 63.5653 603.92 65.336 597.563 65.336Z" stroke="white" stroke-width="16" mask="url(#path-1-outside-1_485_11097)"/>
<path d="M670.976 54.336C667.392 54.336 663.957 53.8667 660.672 52.928C657.387 51.9467 654.741 50.688 652.736 49.152L656.256 41.344C658.176 42.7093 660.437 43.84 663.04 44.736C665.685 45.5893 668.352 46.016 671.04 46.016C673.088 46.016 674.731 45.824 675.968 45.44C677.248 45.0133 678.187 44.4373 678.784 43.712C679.381 42.9867 679.68 42.1547 679.68 41.216C679.68 40.0213 679.211 39.0827 678.272 38.4C677.333 37.6747 676.096 37.0987 674.56 36.672C673.024 36.2027 671.317 35.776 669.44 35.392C667.605 34.9653 665.749 34.4533 663.872 33.856C662.037 33.2587 660.352 32.4907 658.816 31.552C657.28 30.6133 656.021 29.376 655.04 27.84C654.101 26.304 653.632 24.3413 653.632 21.952C653.632 19.392 654.315 17.0667 655.68 14.976C657.088 12.8427 659.179 11.1573 661.952 9.92C664.768 8.64 668.288 8 672.512 8C675.328 8 678.101 8.34133 680.832 9.024C683.563 9.664 685.973 10.6453 688.064 11.968L684.864 19.84C682.773 18.6453 680.683 17.7707 678.592 17.216C676.501 16.6187 674.453 16.32 672.448 16.32C670.443 16.32 668.8 16.5547 667.52 17.024C666.24 17.4933 665.323 18.112 664.768 18.88C664.213 19.6053 663.936 20.4587 663.936 21.44C663.936 22.592 664.405 23.5307 665.344 24.256C666.283 24.9387 667.52 25.4933 669.056 25.92C670.592 26.3467 672.277 26.7733 674.112 27.2C675.989 27.6267 677.845 28.1173 679.68 28.672C681.557 29.2267 683.264 29.9733 684.8 30.912C686.336 31.8507 687.573 33.088 688.512 34.624C689.493 36.16 689.984 38.1013 689.984 40.448C689.984 42.9653 689.28 45.2693 687.872 47.36C686.464 49.4507 684.352 51.136 681.536 52.416C678.763 53.696 675.243 54.336 670.976 54.336Z" stroke="white" stroke-width="16" mask="url(#path-1-outside-1_485_11097)"/>
</g>
<defs>
<filter id="filter0_d_485_11097" x="0" y="0" width="701.994" height="87.3359" filterUnits="userSpaceOnUse" color-interpolation-filters="sRGB">
<feFlood flood-opacity="0" result="BackgroundImageFix"/>
<feColorMatrix in="SourceAlpha" type="matrix" values="0 0 0 0 0 0 0 0 0 0 0 0 0 0 0 0 0 0 127 0" result="hardAlpha"/>
<feOffset dx="4" dy="4"/>
<feComposite in2="hardAlpha" operator="out"/>
<feColorMatrix type="matrix" values="0 0 0 0 0 0 0 0 0 0 0 0 0 0 0 0 0 0 0.25 0"/>
<feBlend mode="normal" in2="BackgroundImageFix" result="effect1_dropShadow_485_11097"/>
<feBlend mode="normal" in="SourceGraphic" in2="effect1_dropShadow_485_11097" result="shape"/>
</filter>
</defs>
</svg>
