<svg width="133" height="78" viewBox="0 0 133 78" fill="none" xmlns="http://www.w3.org/2000/svg">
<g filter="url(#filter0_d_1036_3187)">
<path d="M28.288 65.336C21.9307 65.336 16.96 63.5653 13.376 60.024C9.79198 56.4827 8 51.4267 8 44.856V19.768H18.368V44.472C18.368 48.7387 19.2427 51.8107 20.992 53.688C22.7413 55.5653 25.1947 56.504 28.352 56.504C31.5093 56.504 33.9626 55.5653 35.712 53.688C37.4613 51.8107 38.336 48.7387 38.336 44.472V19.768H48.576V44.856C48.576 51.4267 46.784 56.4827 43.2 60.024C39.616 63.5653 34.6454 65.336 28.288 65.336Z" fill="#780000"/>
<path d="M101.701 54.336C98.1175 54.336 94.6828 53.8667 91.3975 52.928C88.1121 51.9467 85.4668 50.688 83.4615 49.152L86.9814 41.344C88.9014 42.7093 91.1628 43.84 93.7654 44.736C96.4108 45.5893 99.0774 46.016 101.765 46.016C103.813 46.016 105.456 45.824 106.693 45.44C107.973 45.0133 108.912 44.4373 109.509 43.712C110.107 42.9867 110.405 42.1547 110.405 41.216C110.405 40.0213 109.936 39.0827 108.997 38.4C108.059 37.6747 106.821 37.0987 105.285 36.672C103.749 36.2027 102.043 35.776 100.165 35.392C98.3308 34.9653 96.4748 34.4533 94.5975 33.856C92.7628 33.2587 91.0774 32.4907 89.5414 31.552C88.0054 30.6133 86.7468 29.376 85.7654 27.84C84.8268 26.304 84.3575 24.3413 84.3575 21.952C84.3575 19.392 85.0401 17.0667 86.4055 14.976C87.8135 12.8427 89.9042 11.1573 92.6775 9.92C95.4935 8.64 99.0135 8 103.237 8C106.053 8 108.827 8.34133 111.557 9.024C114.288 9.664 116.699 10.6453 118.789 11.968L115.589 19.84C113.499 18.6453 111.408 17.7707 109.317 17.216C107.227 16.6187 105.179 16.32 103.173 16.32C101.168 16.32 99.5255 16.5547 98.2455 17.024C96.9655 17.4933 96.0481 18.112 95.4935 18.88C94.9388 19.6053 94.6614 20.4587 94.6614 21.44C94.6614 22.592 95.1308 23.5307 96.0695 24.256C97.0081 24.9387 98.2455 25.4933 99.7815 25.92C101.317 26.3467 103.003 26.7733 104.837 27.2C106.715 27.6267 108.571 28.1173 110.405 28.672C112.283 29.2267 113.989 29.9733 115.525 30.912C117.061 31.8507 118.299 33.088 119.237 34.624C120.219 36.16 120.709 38.1013 120.709 40.448C120.709 42.9653 120.005 45.2693 118.597 47.36C117.189 49.4507 115.077 51.136 112.261 52.416C109.488 53.696 105.968 54.336 101.701 54.336Z" fill="#780000"/>
<path d="M8 15.768H4V19.768V44.856C4 52.1567 6.00859 58.3676 10.5645 62.8693C15.0807 67.3317 21.1677 69.336 28.288 69.336C35.4083 69.336 41.4953 67.3317 46.0115 62.8693C50.5674 58.3676 52.576 52.1567 52.576 44.856V19.768V15.768H48.576H38.336H34.336V19.768V44.472C34.336 48.355 33.5112 50.1824 32.7855 50.9611C31.9617 51.8453 30.6741 52.504 28.352 52.504C26.0299 52.504 24.7423 51.8453 23.9184 50.9611C23.1928 50.1824 22.368 48.355 22.368 44.472V19.768V15.768H18.368H8ZM90.2526 56.7607L90.2756 56.7675L90.2986 56.7741C93.9584 57.8198 97.764 58.336 101.701 58.336C106.327 58.336 110.465 57.6481 113.927 56.0528C117.259 54.5365 120.011 52.4218 121.915 49.5944C123.767 46.8443 124.709 43.7625 124.709 40.448C124.709 37.5691 124.109 34.8377 122.63 32.5051C121.363 30.4427 119.678 28.7617 117.611 27.4989C115.756 26.3653 113.729 25.4842 111.551 24.8396C109.634 24.2602 107.695 23.7476 105.734 23.3017C103.949 22.8864 102.322 22.4743 100.852 22.0659C99.8744 21.7944 99.1959 21.4972 98.7388 21.2275C98.8067 21.1699 99.044 20.9916 99.6225 20.7795C100.306 20.529 101.437 20.32 103.173 20.32C104.777 20.32 106.455 20.5583 108.219 21.0621L108.255 21.0725L108.292 21.0822C110.012 21.5386 111.782 22.2712 113.605 23.313L117.574 25.5808L119.295 21.3463L122.495 13.4743L123.755 10.3759L120.928 8.58768C118.421 7.00181 115.596 5.86496 112.499 5.1363C109.46 4.37903 106.371 4 103.237 4C98.6448 4 94.5216 4.69084 91.0351 6.2727C87.7042 7.76112 84.9659 9.89555 83.067 12.7726L83.0617 12.7807L83.0564 12.7888C81.2551 15.5471 80.3575 18.636 80.3575 21.952C80.3575 24.8428 80.9236 27.5879 82.3523 29.9258L82.3731 29.9599L82.3947 29.9936C83.6988 32.0349 85.3945 33.7055 87.4556 34.9651C89.2763 36.0777 91.2489 36.9724 93.3591 37.6595L93.3719 37.6636L93.3847 37.6677C95.3585 38.2957 97.3168 38.8363 99.2594 39.288L99.3115 39.3001L99.3639 39.3109C101.14 39.6742 102.722 40.0712 104.117 40.4974L104.166 40.5124L104.215 40.5261C105.122 40.7782 105.757 41.0604 106.192 41.3217C106.044 41.4053 105.814 41.5144 105.47 41.6314C104.767 41.8426 103.583 42.016 101.765 42.016C99.5207 42.016 97.2801 41.6628 95.0303 40.941C92.7469 40.1516 90.8519 39.1881 89.2995 38.0842L85.3345 35.2646L83.3349 39.7001L79.8149 47.5081L78.5116 50.3991L81.0292 52.3275C83.531 54.2438 86.6574 55.6868 90.2526 56.7607ZM98.7362 21.222C98.7355 21.2229 98.7348 21.2239 98.7341 21.2248L98.7362 21.222Z" stroke="white" stroke-width="8"/>
</g>
<defs>
<filter id="filter0_d_1036_3187" x="0" y="0" width="132.72" height="77.3359" filterUnits="userSpaceOnUse" color-interpolation-filters="sRGB">
<feFlood flood-opacity="0" result="BackgroundImageFix"/>
<feColorMatrix in="SourceAlpha" type="matrix" values="0 0 0 0 0 0 0 0 0 0 0 0 0 0 0 0 0 0 127 0" result="hardAlpha"/>
<feOffset dx="4" dy="4"/>
<feComposite in2="hardAlpha" operator="out"/>
<feColorMatrix type="matrix" values="0 0 0 0 0 0 0 0 0 0 0 0 0 0 0 0 0 0 0.25 0"/>
<feBlend mode="normal" in2="BackgroundImageFix" result="effect1_dropShadow_1036_3187"/>
<feBlend mode="normal" in="SourceGraphic" in2="effect1_dropShadow_1036_3187" result="shape"/>
</filter>
</defs>
</svg>
