<svg width="499" height="616" viewBox="0 0 499 616" fill="none" xmlns="http://www.w3.org/2000/svg">
<path d="M628.665 314.833C628.665 480.36 494.478 614.547 328.951 614.547C163.423 614.547 29.2361 480.36 29.2361 314.833C29.2361 149.305 163.423 15.118 328.951 15.118C494.478 15.118 628.665 149.305 628.665 314.833Z" fill="#003049" stroke="#003049" stroke-width="2"/>
<path d="M600.429 300.715C600.429 466.242 466.242 600.429 300.715 600.429C135.187 600.429 1 466.242 1 300.715C1 135.187 135.187 1 300.715 1C466.242 1 600.429 135.187 600.429 300.715Z" fill="#C1121F" stroke="#003049" stroke-width="2"/>
<ellipse cx="302.126" cy="302.126" rx="254.125" ry="254.125" fill="#FDF0D5"/>
<circle cx="302.126" cy="302.126" r="211.771" fill="#C1121F"/>
<ellipse cx="302.126" cy="302.126" rx="169.417" ry="169.417" fill="#FDF0D5"/>
</svg>
