<svg width="296" height="292" viewBox="0 0 296 292" fill="none" xmlns="http://www.w3.org/2000/svg">
<g filter="url(#filter0_d_451_5671)">
<mask id="path-1-outside-1_451_5671" maskUnits="userSpaceOnUse" x="4.71094" y="0.0638428" width="287" height="284" fill="black">
<rect fill="white" x="4.71094" y="0.0638428" width="287" height="284"/>
<path fill-rule="evenodd" clip-rule="evenodd" d="M160.074 42.3546L215.46 3.06384C226.1 17.5895 230.468 35.6597 227.605 53.2993C224.85 70.2705 215.618 85.5056 201.841 95.9161C214.634 110.105 222.404 128.786 222.404 149.254L140.81 149.254H140.801V149.263L140.81 149.263L222.386 149.263L222.404 149.263C222.404 193.645 185.873 229.623 140.81 229.623H140.793C96.8377 229.623 61.0006 195.392 59.2647 152.521L59.2647 201.693C59.2648 215.42 53.7279 228.586 43.8722 238.292C34.0164 247.999 20.6492 253.452 6.71103 253.452L6.71104 201.693L6.71094 201.693C6.71094 187.895 12.2478 174.662 22.1036 164.905C31.9441 155.163 45.2852 149.684 59.1999 149.667C59.1992 149.532 59.1989 149.397 59.1989 149.263L101.025 149.263H101.025C101.025 149.26 101.025 149.257 101.025 149.254L59.2167 149.254H59.2161C59.2161 104.872 95.7469 68.8937 140.81 68.8937H140.81C160.812 68.8939 179.132 75.9821 193.324 87.747L189.035 81.8915L189.02 81.9021L160.074 42.3853L160.089 42.3748L160.074 42.3546ZM73.7229 68.7245L6.71094 68.7245C6.71094 51.3102 13.7711 34.6092 26.3383 22.2954C38.9055 9.98166 55.9502 3.06386 73.7229 3.06386C91.4044 3.06387 108.362 9.98166 120.865 22.2954C133.367 34.6092 140.391 51.3102 140.391 68.7245L73.7229 68.7245ZM222.404 149.667V215.327V281.326C240.085 281.326 257.043 274.373 269.545 261.996C282.048 249.618 289.072 232.831 289.072 215.327C289.072 197.913 282.048 181.212 269.545 168.898C257.043 156.584 240.085 149.667 222.404 149.667ZM50.8079 244.792C60.6637 235.085 74.031 229.632 87.969 229.632H140.794C140.794 243.359 135.228 256.524 125.322 266.231C115.415 275.938 101.979 281.391 87.969 281.391H35.4153C35.4153 267.664 40.9522 254.498 50.8079 244.792Z"/>
</mask>
<path fill-rule="evenodd" clip-rule="evenodd" d="M160.074 42.3546L215.46 3.06384C226.1 17.5895 230.468 35.6597 227.605 53.2993C224.85 70.2705 215.618 85.5056 201.841 95.9161C214.634 110.105 222.404 128.786 222.404 149.254L140.81 149.254H140.801V149.263L140.81 149.263L222.386 149.263L222.404 149.263C222.404 193.645 185.873 229.623 140.81 229.623H140.793C96.8377 229.623 61.0006 195.392 59.2647 152.521L59.2647 201.693C59.2648 215.42 53.7279 228.586 43.8722 238.292C34.0164 247.999 20.6492 253.452 6.71103 253.452L6.71104 201.693L6.71094 201.693C6.71094 187.895 12.2478 174.662 22.1036 164.905C31.9441 155.163 45.2852 149.684 59.1999 149.667C59.1992 149.532 59.1989 149.397 59.1989 149.263L101.025 149.263H101.025C101.025 149.26 101.025 149.257 101.025 149.254L59.2167 149.254H59.2161C59.2161 104.872 95.7469 68.8937 140.81 68.8937H140.81C160.812 68.8939 179.132 75.9821 193.324 87.747L189.035 81.8915L189.02 81.9021L160.074 42.3853L160.089 42.3748L160.074 42.3546ZM73.7229 68.7245L6.71094 68.7245C6.71094 51.3102 13.7711 34.6092 26.3383 22.2954C38.9055 9.98166 55.9502 3.06386 73.7229 3.06386C91.4044 3.06387 108.362 9.98166 120.865 22.2954C133.367 34.6092 140.391 51.3102 140.391 68.7245L73.7229 68.7245ZM222.404 149.667V215.327V281.326C240.085 281.326 257.043 274.373 269.545 261.996C282.048 249.618 289.072 232.831 289.072 215.327C289.072 197.913 282.048 181.212 269.545 168.898C257.043 156.584 240.085 149.667 222.404 149.667ZM50.8079 244.792C60.6637 235.085 74.031 229.632 87.969 229.632H140.794C140.794 243.359 135.228 256.524 125.322 266.231C115.415 275.938 101.979 281.391 87.969 281.391H35.4153C35.4153 267.664 40.9522 254.498 50.8079 244.792Z" fill="#780000"/>
<path d="M215.46 3.06384L217.073 1.882L215.909 0.292866L214.303 1.43262L215.46 3.06384ZM160.074 42.3546L158.917 40.7233L157.261 41.8983L158.461 43.5365L160.074 42.3546ZM227.605 53.2993L225.631 52.9788L227.605 53.2993ZM201.841 95.9161L200.635 94.3204L198.895 95.6354L200.355 97.2554L201.841 95.9161ZM222.404 149.254V151.254H224.404V149.254H222.404ZM140.81 149.254V147.254V149.254ZM140.801 149.254V147.254H138.801V149.254H140.801ZM140.801 149.263H138.801V151.269L140.808 151.263L140.801 149.263ZM140.81 149.263V147.263L140.804 147.263L140.81 149.263ZM222.386 149.263V151.263H222.388L222.386 149.263ZM222.404 149.263H224.404V147.261L222.403 147.263L222.404 149.263ZM140.81 229.623V231.623V229.623ZM59.2647 152.521L61.2631 152.44L57.2647 152.521H59.2647ZM59.2647 201.693H57.2647V201.693L59.2647 201.693ZM43.8722 238.292L45.2756 239.717L43.8722 238.292ZM6.71103 253.452H4.71103L4.71103 255.452H6.71103V253.452ZM6.71104 201.693H8.71104L8.71104 198.603L5.89206 199.868L6.71104 201.693ZM6.71094 201.693H4.71094L4.71094 204.783L7.52992 203.517L6.71094 201.693ZM22.1036 164.905L20.6965 163.483H20.6965L22.1036 164.905ZM59.1999 149.667L59.2023 151.667L61.2099 151.664L61.1999 149.657L59.1999 149.667ZM59.1989 149.263L59.1989 147.263H57.1989V149.263H59.1989ZM101.025 149.263V147.263V149.263ZM101.025 149.263V151.263H103.025V149.263H101.025ZM101.025 149.254H103.025V147.254H101.025V149.254ZM59.2167 149.254V147.254V149.254ZM59.2161 149.254H57.2161V151.254H59.2161V149.254ZM140.81 68.8937L140.81 66.8937H140.81V68.8937ZM193.324 87.747L192.047 89.2867L194.937 86.5652L193.324 87.747ZM189.035 81.8915L190.648 80.7097L189.484 79.1203L187.877 80.2605L189.035 81.8915ZM189.02 81.9021L187.406 83.0839L188.571 84.6733L190.177 83.5331L189.02 81.9021ZM160.074 42.3853L158.917 40.7539L157.261 41.9287L158.461 43.5671L160.074 42.3853ZM160.089 42.3748L161.246 44.0061L162.903 42.8312L161.702 41.1928L160.089 42.3748ZM6.71094 68.7245H4.71094L4.71094 70.7245H6.71094L6.71094 68.7245ZM73.7229 68.7245V66.7245V68.7245ZM26.3383 22.2954L27.738 23.724L26.3383 22.2954ZM73.7229 3.06386V1.06386V3.06386ZM120.865 22.2954L122.268 20.8705L120.865 22.2954ZM140.391 68.7245V70.7245H142.391V68.7245H140.391ZM222.404 149.667V147.667H220.404V149.667H222.404ZM222.404 281.326H220.404V283.326H222.404V281.326ZM269.545 261.996L268.138 260.574L269.545 261.996ZM269.545 168.898L268.142 170.323L269.545 168.898ZM50.8079 244.792L52.2113 246.217L50.8079 244.792ZM140.794 229.632L142.794 229.632V227.632H140.794V229.632ZM125.322 266.231L123.922 264.803L125.322 266.231ZM35.4153 281.391H33.4153V283.391H35.4153V281.391ZM214.303 1.43262L158.917 40.7233L161.231 43.9858L216.617 4.69507L214.303 1.43262ZM229.579 53.6197C232.529 35.4468 228.027 16.8362 217.073 1.882L213.846 4.24568C224.172 18.3427 228.408 35.8726 225.631 52.9788L229.579 53.6197ZM203.046 97.5118C217.231 86.794 226.741 71.104 229.579 53.6197L225.631 52.9788C222.959 69.437 214.006 84.2173 200.635 94.3204L203.046 97.5118ZM224.404 149.254C224.404 128.269 216.435 109.116 203.326 94.5768L200.355 97.2554C212.833 111.094 220.404 129.303 220.404 149.254H224.404ZM140.81 151.254L222.404 151.254V147.254L140.81 147.254V151.254ZM140.801 151.254H140.81V147.254H140.801V151.254ZM138.801 149.254V149.263H142.801V149.254H138.801ZM140.804 147.263L140.795 147.263L140.808 151.263L140.817 151.263L140.804 147.263ZM222.386 147.263L140.81 147.263V151.263L222.386 151.263V147.263ZM222.403 147.263L222.385 147.263L222.388 151.263L222.406 151.263L222.403 147.263ZM140.81 231.623C186.949 231.623 224.404 194.778 224.404 149.263H220.404C220.404 192.511 184.798 227.623 140.81 227.623V231.623ZM140.793 231.623H140.81V227.623H140.793V231.623ZM57.2664 152.602C59.0466 196.568 95.7874 231.623 140.793 231.623V227.623C97.8881 227.623 62.9546 194.217 61.2631 152.44L57.2664 152.602ZM61.2647 201.693L61.2647 152.521H57.2647L57.2647 201.693H61.2647ZM45.2756 239.717C55.5097 229.638 61.2648 215.961 61.2647 201.693L57.2647 201.693C57.2648 214.88 51.9462 227.533 42.4688 236.867L45.2756 239.717ZM6.71103 255.452C21.1698 255.452 35.0425 249.796 45.2756 239.717L42.4688 236.867C32.9904 246.202 20.1285 251.452 6.71103 251.452V255.452ZM4.71104 201.693L4.71103 253.452H8.71103L8.71104 201.693H4.71104ZM7.52992 203.517L7.53002 203.517L5.89206 199.868L5.89196 199.868L7.52992 203.517ZM20.6965 163.483C10.4635 173.614 4.71094 187.358 4.71094 201.693H8.71094C8.71094 188.432 14.0322 175.709 23.5107 166.326L20.6965 163.483ZM59.1975 147.667C44.7596 147.684 30.913 153.369 20.6965 163.483L23.5107 166.326C32.9751 156.957 45.8107 151.683 59.2023 151.667L59.1975 147.667ZM57.1989 149.263C57.1989 149.401 57.1992 149.539 57.1999 149.677L61.1999 149.657C61.1992 149.525 61.1989 149.394 61.1989 149.263H57.1989ZM101.025 147.263L59.1989 147.263L59.1989 151.263L101.025 151.263V147.263ZM101.025 147.263H101.025V151.263H101.025V147.263ZM103.025 149.263C103.025 149.266 103.025 149.269 103.025 149.267C103.025 149.266 103.025 149.26 103.025 149.254H99.0254C99.0254 149.251 99.0254 149.248 99.0254 149.25C99.0254 149.251 99.0254 149.257 99.0254 149.263H103.025ZM59.2167 151.254L101.025 151.254V147.254L59.2167 147.254V151.254ZM59.2161 151.254H59.2167V147.254H59.2161V151.254ZM140.81 66.8937C94.6711 66.8937 57.2161 103.739 57.2161 149.254H61.2161C61.2161 106.006 96.8226 70.8937 140.81 70.8937V66.8937ZM140.81 66.8937H140.81V70.8937H140.81V66.8937ZM194.6 86.2073C180.061 74.1539 161.292 66.8939 140.81 66.8937L140.81 70.8937C160.332 70.8939 178.204 77.8102 192.047 89.2867L194.6 86.2073ZM187.421 83.0734L191.71 88.9288L194.937 86.5652L190.648 80.7097L187.421 83.0734ZM190.177 83.5331L190.192 83.5226L187.877 80.2605L187.862 80.2711L190.177 83.5331ZM158.461 43.5671L187.406 83.0839L190.633 80.7202L161.688 41.2035L158.461 43.5671ZM158.932 40.7434L158.917 40.7539L161.231 44.0167L161.246 44.0061L158.932 40.7434ZM158.461 43.5365L158.476 43.5567L161.702 41.1928L161.688 41.1726L158.461 43.5365ZM6.71094 70.7245L73.7229 70.7245V66.7245L6.71094 66.7245L6.71094 70.7245ZM24.9385 20.8669C11.9919 33.5524 4.71094 50.7665 4.71094 68.7245H8.71094C8.71094 51.854 15.5503 35.6659 27.738 23.724L24.9385 20.8669ZM73.7229 1.06386C55.4328 1.06386 37.8838 8.18268 24.9385 20.8669L27.738 23.724C39.9271 11.7806 56.4677 5.06386 73.7229 5.06386V1.06386ZM122.268 20.8705C109.388 8.18509 91.9251 1.06387 73.7229 1.06386V5.06386C90.8837 5.06387 107.336 11.7782 119.461 23.7204L122.268 20.8705ZM142.391 68.7245C142.391 50.7699 135.149 33.5569 122.268 20.8705L119.461 23.7204C131.585 35.6615 138.391 51.8506 138.391 68.7245H142.391ZM73.7229 70.7245L140.391 70.7245V66.7245L73.7229 66.7245V70.7245ZM224.404 215.327V149.667H220.404V215.327H224.404ZM224.404 281.326V215.327H220.404V281.326H224.404ZM268.138 260.574C256.012 272.579 239.561 279.326 222.404 279.326V283.326C240.609 283.326 258.073 276.167 270.952 263.417L268.138 260.574ZM287.072 215.327C287.072 232.294 280.264 248.571 268.138 260.574L270.952 263.417C283.832 250.666 291.072 233.368 291.072 215.327H287.072ZM268.142 170.323C280.266 182.264 287.072 198.453 287.072 215.327H291.072C291.072 197.373 283.83 180.16 270.949 167.473L268.142 170.323ZM222.404 151.667C239.565 151.667 256.016 158.381 268.142 170.323L270.949 167.473C258.069 154.788 240.606 147.667 222.404 147.667V151.667ZM87.969 227.632C73.5103 227.632 59.6376 233.288 49.4045 243.367L52.2113 246.217C61.6898 236.881 74.5517 231.632 87.969 231.632V227.632ZM140.794 227.632H87.969V231.632H140.794V227.632ZM126.721 267.66C137.007 257.581 142.794 243.903 142.794 229.632L138.794 229.632C138.794 242.815 133.449 255.468 123.922 264.803L126.721 267.66ZM87.969 283.391C102.496 283.391 116.437 277.737 126.721 267.66L123.922 264.803C114.394 274.139 101.462 279.391 87.969 279.391V283.391ZM35.4153 283.391H87.969V279.391H35.4153V283.391ZM49.4045 243.367C39.1704 253.446 33.4153 267.123 33.4153 281.391H37.4153C37.4153 268.204 42.734 255.551 52.2113 246.217L49.4045 243.367Z" fill="#003049" mask="url(#path-1-outside-1_451_5671)"/>
</g>
<path d="M222.404 281.326L222.404 215.327L289.072 215.327C289.072 232.831 282.048 249.618 269.545 261.996C257.043 274.373 240.085 281.326 222.404 281.326Z" fill="#003049"/>
<path d="M222.404 281.326L222.404 215.327L289.072 215.327C289.072 232.831 282.048 249.618 269.545 261.996C257.043 274.373 240.085 281.326 222.404 281.326Z" stroke="#003049"/>
<path d="M222.404 149.667L222.404 215.327L289.072 215.327C289.072 197.913 282.048 181.212 269.545 168.898C257.043 156.584 240.085 149.667 222.404 149.667Z" fill="#003049"/>
<path d="M222.404 149.667L222.404 215.327L289.072 215.327C289.072 197.913 282.048 181.212 269.545 168.898C257.043 156.584 240.085 149.667 222.404 149.667Z" stroke="#003049"/>
<path d="M6.71094 68.7245L73.7229 68.7245L73.7229 3.06383C55.9502 3.06383 38.9055 9.98163 26.3383 22.2954C13.7711 34.6092 6.71094 51.3102 6.71094 68.7245Z" fill="#003049"/>
<path d="M6.71094 68.7245L73.7229 68.7245L73.7229 3.06383C55.9502 3.06383 38.9055 9.98163 26.3383 22.2954C13.7711 34.6092 6.71094 51.3102 6.71094 68.7245Z" stroke="#003049"/>
<path d="M140.391 68.7245L73.7228 68.7245L73.7228 3.06384C91.4043 3.06384 108.362 9.98163 120.864 22.2954C133.367 34.6092 140.391 51.3102 140.391 68.7245Z" fill="#003049"/>
<path d="M140.391 68.7245L73.7228 68.7245L73.7228 3.06384C91.4043 3.06384 108.362 9.98163 120.864 22.2954C133.367 34.6092 140.391 51.3102 140.391 68.7245Z" stroke="#003049"/>
<path d="M59.2646 149.667L59.2646 201.693L6.71085 201.693C6.71086 187.895 12.2478 174.662 22.1035 164.905C31.9593 155.148 45.3265 149.667 59.2646 149.667Z" fill="#003049"/>
<path d="M59.2646 149.667L59.2646 201.693L6.71085 201.693C6.71086 187.895 12.2478 174.662 22.1035 164.905C31.9593 155.148 45.3265 149.667 59.2646 149.667Z" stroke="#003049"/>
<path d="M6.71094 253.452L6.71095 201.693L59.2647 201.693C59.2647 215.42 53.7278 228.585 43.8721 238.292C34.0163 247.999 20.6491 253.452 6.71094 253.452Z" fill="#003049"/>
<path d="M6.71094 253.452L6.71095 201.693L59.2647 201.693C59.2647 215.42 53.7278 228.585 43.8721 238.292C34.0163 247.999 20.6491 253.452 6.71094 253.452Z" stroke="#003049"/>
<path d="M140.794 229.632L87.969 229.632L87.969 281.391C101.979 281.391 115.415 275.938 125.322 266.231C135.228 256.524 140.794 243.359 140.794 229.632Z" fill="#003049"/>
<path d="M140.794 229.632L87.969 229.632L87.969 281.391C101.979 281.391 115.415 275.938 125.322 266.231C135.228 256.524 140.794 243.359 140.794 229.632Z" stroke="#003049"/>
<path d="M35.4153 281.391L87.9691 281.391L87.9691 229.632C74.0309 229.632 60.6637 235.085 50.8079 244.792C40.9522 254.498 35.4153 267.664 35.4153 281.391Z" fill="#003049"/>
<path d="M35.4153 281.391L87.9691 281.391L87.9691 229.632C74.0309 229.632 60.6637 235.085 50.8079 244.792C40.9522 254.498 35.4153 267.664 35.4153 281.391Z" stroke="#003049"/>
<path d="M215.46 3.06384L160.074 42.3546L200.192 97.1234C214.881 86.7029 224.742 70.9389 227.605 53.2993C230.468 35.6597 226.1 17.5895 215.46 3.06384Z" fill="#003049"/>
<path d="M215.46 3.06384L160.074 42.3546L200.192 97.1234C214.881 86.7029 224.742 70.9389 227.605 53.2993C230.468 35.6597 226.1 17.5895 215.46 3.06384Z" stroke="#003049"/>
<path d="M200.036 14.0364L160.074 42.3854L189.02 81.9022C199.618 74.3835 206.733 63.0095 208.799 50.2822C210.865 37.5549 207.713 24.5169 200.036 14.0364Z" fill="#003049"/>
<path d="M200.036 14.0364L160.074 42.3854L189.02 81.9022C199.618 74.3835 206.733 63.0095 208.799 50.2822C210.865 37.5549 207.713 24.5169 200.036 14.0364Z" stroke="#003049"/>
<path d="M185.022 47.3555C186.985 50.0357 190.774 50.6498 193.484 48.727C196.194 46.8043 196.8 43.0728 194.837 40.3926C192.874 37.7124 189.085 37.0984 186.375 39.0211C183.664 40.9439 183.059 44.6753 185.022 47.3555Z" fill="#003049"/>
<path d="M185.022 47.3555C186.985 50.0357 190.774 50.6498 193.484 48.727C196.194 46.8043 196.8 43.0728 194.837 40.3926C192.874 37.7124 189.085 37.0984 186.375 39.0211C183.664 40.9439 183.059 44.6753 185.022 47.3555Z" stroke="#003049"/>
<path fill-rule="evenodd" clip-rule="evenodd" d="M59.2162 149.254C59.2162 104.872 95.747 68.8937 140.81 68.8937C185.873 68.8937 222.404 104.872 222.404 149.254C222.404 149.254 222.404 149.254 222.404 149.254L59.2162 149.254Z" fill="#003049"/>
<path fill-rule="evenodd" clip-rule="evenodd" d="M140.811 149.254L59.2168 149.254C59.2168 104.872 95.7475 68.8937 140.811 68.8937V149.254Z" fill="#003049"/>
<path fill-rule="evenodd" clip-rule="evenodd" d="M101.644 149.254L179.757 149.254C179.757 128.01 162.271 110.788 140.701 110.788C119.13 110.788 101.644 128.01 101.644 149.254Z" fill="#003049"/>
<path fill-rule="evenodd" clip-rule="evenodd" d="M222.387 149.263L59.199 149.263C59.199 193.645 95.7298 229.623 140.793 229.623C185.856 229.623 222.387 193.645 222.387 149.263Z" fill="#003049"/>
<path fill-rule="evenodd" clip-rule="evenodd" d="M140.811 149.263L222.404 149.263C222.404 193.645 185.874 229.623 140.811 229.623L140.811 149.263Z" fill="#003049"/>
<path fill-rule="evenodd" clip-rule="evenodd" d="M179.757 149.263C179.757 170.507 162.133 187.729 140.391 187.729C118.65 187.729 101.025 170.507 101.025 149.263L179.757 149.263Z" fill="#003049"/>
<path fill-rule="evenodd" clip-rule="evenodd" d="M140.801 149.263L101.025 149.263C101.025 170.489 118.829 187.7 140.801 187.729V149.263Z" fill="#003049"/>
<path fill-rule="evenodd" clip-rule="evenodd" d="M140.801 149.362L101.025 149.362C101.025 128.135 118.829 110.924 140.801 110.896V149.362Z" fill="#003049"/>
<defs>
<filter id="filter0_d_451_5671" x="0.710938" y="0.292847" width="294.361" height="291.098" filterUnits="userSpaceOnUse" color-interpolation-filters="sRGB">
<feFlood flood-opacity="0" result="BackgroundImageFix"/>
<feColorMatrix in="SourceAlpha" type="matrix" values="0 0 0 0 0 0 0 0 0 0 0 0 0 0 0 0 0 0 127 0" result="hardAlpha"/>
<feOffset dy="4"/>
<feGaussianBlur stdDeviation="2"/>
<feComposite in2="hardAlpha" operator="out"/>
<feColorMatrix type="matrix" values="0 0 0 0 0 0 0 0 0 0 0 0 0 0 0 0 0 0 0.25 0"/>
<feBlend mode="normal" in2="BackgroundImageFix" result="effect1_dropShadow_451_5671"/>
<feBlend mode="normal" in="SourceGraphic" in2="effect1_dropShadow_451_5671" result="shape"/>
</filter>
</defs>
</svg>
