<svg width="315" height="320" viewBox="0 0 315 320" fill="none" xmlns="http://www.w3.org/2000/svg">
<g filter="url(#filter0_d_451_5672)">
<mask id="path-1-outside-1_451_5672" maskUnits="userSpaceOnUse" x="4.24023" y="0.298584" width="307" height="312" fill="black">
<rect fill="white" x="4.24023" y="0.298584" width="307" height="312"/>
<path fill-rule="evenodd" clip-rule="evenodd" d="M169.604 57.3041L209.646 28.4394L225.101 17.2986C235.711 32.0174 240.04 50.3483 237.134 68.2586C234.343 85.4642 225.096 100.928 211.324 111.524C224.145 125.937 231.933 144.925 231.933 165.733L150.34 165.733H150.331V165.741L150.34 165.741H231.916L231.934 165.741C231.934 210.804 195.403 247.335 150.34 247.335L150.322 247.335C106.367 247.335 70.5299 212.579 68.794 169.049L68.794 218.976C68.7941 232.914 63.2572 246.281 53.4015 256.137C43.5457 265.993 30.1785 271.53 16.2403 271.53L16.2403 218.976L16.2402 218.976C16.2402 204.966 21.7771 191.53 31.6329 181.623C41.4734 171.732 54.8145 166.168 68.7292 166.151C68.7285 166.015 68.7282 165.878 68.7282 165.741L110.555 165.741H110.555C110.555 165.738 110.555 165.735 110.555 165.733L68.746 165.732H68.7454C68.7454 120.67 105.276 84.1387 150.339 84.1387H150.34C170.215 84.1389 188.43 91.2452 202.584 103.056L198.468 97.3467L169.604 57.3041ZM83.2522 83.9669L16.2402 83.9669C16.2402 66.2854 23.3004 49.328 35.8676 36.8253C48.4348 24.3226 65.4795 17.2986 83.2522 17.2986C100.934 17.2986 117.891 24.3226 130.394 36.8253C142.897 49.328 149.921 66.2854 149.921 83.9669L83.2522 83.9669ZM231.933 166.151V232.82V299.831C249.615 299.831 266.572 292.771 279.075 280.204C291.577 267.637 298.601 250.592 298.601 232.82C298.601 215.138 291.577 198.181 279.075 185.678C266.572 173.175 249.615 166.151 231.933 166.151ZM60.3372 262.736C70.193 252.88 83.5603 247.343 97.4983 247.343H150.323C150.323 261.282 144.758 274.649 134.851 284.505C124.944 294.36 111.508 299.897 97.4983 299.897H44.9446C44.9446 285.959 50.4815 272.592 60.3372 262.736Z"/>
</mask>
<path fill-rule="evenodd" clip-rule="evenodd" d="M169.604 57.3041L209.646 28.4394L225.101 17.2986C235.711 32.0174 240.04 50.3483 237.134 68.2586C234.343 85.4642 225.096 100.928 211.324 111.524C224.145 125.937 231.933 144.925 231.933 165.733L150.34 165.733H150.331V165.741L150.34 165.741H231.916L231.934 165.741C231.934 210.804 195.403 247.335 150.34 247.335L150.322 247.335C106.367 247.335 70.5299 212.579 68.794 169.049L68.794 218.976C68.7941 232.914 63.2572 246.281 53.4015 256.137C43.5457 265.993 30.1785 271.53 16.2403 271.53L16.2403 218.976L16.2402 218.976C16.2402 204.966 21.7771 191.53 31.6329 181.623C41.4734 171.732 54.8145 166.168 68.7292 166.151C68.7285 166.015 68.7282 165.878 68.7282 165.741L110.555 165.741H110.555C110.555 165.738 110.555 165.735 110.555 165.733L68.746 165.732H68.7454C68.7454 120.67 105.276 84.1387 150.339 84.1387H150.34C170.215 84.1389 188.43 91.2452 202.584 103.056L198.468 97.3467L169.604 57.3041ZM83.2522 83.9669L16.2402 83.9669C16.2402 66.2854 23.3004 49.328 35.8676 36.8253C48.4348 24.3226 65.4795 17.2986 83.2522 17.2986C100.934 17.2986 117.891 24.3226 130.394 36.8253C142.897 49.328 149.921 66.2854 149.921 83.9669L83.2522 83.9669ZM231.933 166.151V232.82V299.831C249.615 299.831 266.572 292.771 279.075 280.204C291.577 267.637 298.601 250.592 298.601 232.82C298.601 215.138 291.577 198.181 279.075 185.678C266.572 173.175 249.615 166.151 231.933 166.151ZM60.3372 262.736C70.193 252.88 83.5603 247.343 97.4983 247.343H150.323C150.323 261.282 144.758 274.649 134.851 284.505C124.944 294.36 111.508 299.897 97.4983 299.897H44.9446C44.9446 285.959 50.4815 272.592 60.3372 262.736Z" fill="#780000"/>
<path d="M209.646 28.4394L216.663 38.1739L216.663 38.1739L209.646 28.4394ZM169.604 57.3041L162.586 47.5697L152.852 54.5868L159.869 64.3213L169.604 57.3041ZM225.101 17.2986L234.836 10.2815L227.818 0.546974L218.084 7.56412L225.101 17.2986ZM237.134 68.2586L225.289 66.3372L237.134 68.2586ZM211.324 111.524L204.006 102.014L193.793 109.872L202.358 119.5L211.324 111.524ZM231.933 165.733V177.733L243.933 177.733V165.733H231.933ZM150.34 165.733V153.733V165.733ZM150.331 165.733V153.733H138.331V165.733H150.331ZM150.331 165.741H138.331V177.781L150.37 177.741L150.331 165.741ZM150.34 165.741V153.741H150.32L150.3 153.741L150.34 165.741ZM231.916 165.741L231.926 153.741H231.916V165.741ZM231.934 165.741H243.934V153.751L231.944 153.741L231.934 165.741ZM150.34 247.335L150.329 259.335H150.34V247.335ZM150.322 247.335L150.332 235.335H150.322V247.335ZM68.794 169.049L80.7845 168.571L56.794 169.049H68.794ZM68.794 218.976H56.794V218.976L68.794 218.976ZM53.4015 256.137L44.9162 247.652H44.9162L53.4015 256.137ZM16.2403 271.53H4.24032L4.24032 283.53H16.2403V271.53ZM16.2403 218.976H28.2403L28.2403 205.048L14.4653 207.108L16.2403 218.976ZM16.2402 218.976H4.24023L4.24023 232.904L18.0153 230.844L16.2402 218.976ZM31.6329 181.623L40.14 190.087L40.14 190.087L31.6329 181.623ZM68.7292 166.151L68.744 178.151L80.7882 178.136L80.729 166.092L68.7292 166.151ZM68.7282 165.741L68.7282 153.741L56.7282 153.741V165.741H68.7282ZM110.555 165.741V153.741H110.555L110.555 165.741ZM110.555 165.741V177.741H122.555V165.741H110.555ZM110.555 165.733H122.555V153.733L110.555 153.733L110.555 165.733ZM68.746 165.732L68.746 153.732H68.746V165.732ZM68.7454 165.732H56.7454V177.732H68.7454V165.732ZM150.34 84.1387L150.34 72.1387H150.34V84.1387ZM202.584 103.056L194.895 112.269L212.318 96.0384L202.584 103.056ZM198.468 97.3467L188.734 104.364L188.734 104.364L198.468 97.3467ZM16.2402 83.9669H4.24024L4.24024 95.9669H16.2402L16.2402 83.9669ZM83.2522 83.9669V71.9669V83.9669ZM35.8676 36.8253L27.4041 28.3182L35.8676 36.8253ZM83.2522 17.2986L83.2522 5.29859H83.2522V17.2986ZM130.394 36.8253L138.879 28.34V28.34L130.394 36.8253ZM149.921 83.9669V95.9669H161.921V83.9669H149.921ZM231.933 166.151V154.151H219.933V166.151H231.933ZM231.933 299.831H219.933V311.831H231.933V299.831ZM279.075 280.204L270.568 271.741L279.075 280.204ZM279.075 185.678L270.589 194.163L279.075 185.678ZM60.3372 262.736L68.8225 271.221L68.8225 271.221L60.3372 262.736ZM150.323 247.343L162.323 247.343L162.323 235.343H150.323V247.343ZM44.9446 299.897H32.9446L32.9446 311.897H44.9446V299.897ZM202.629 18.705L162.586 47.5697L176.621 67.0386L216.663 38.1739L202.629 18.705ZM218.084 7.56412L202.629 18.705L216.663 38.1739L232.118 27.033L218.084 7.56412ZM248.98 70.1801C252.394 49.1282 247.307 27.5821 234.836 10.2815L215.367 24.3157C224.116 36.4528 227.685 51.5684 225.289 66.3372L248.98 70.1801ZM218.642 121.035C234.83 108.579 245.699 90.4037 248.98 70.1801L225.289 66.3372C222.988 80.5247 215.363 93.276 204.006 102.014L218.642 121.035ZM243.933 165.733C243.933 141.873 234.989 120.074 220.29 103.549L202.358 119.5C213.3 131.801 219.933 147.978 219.933 165.733H243.933ZM150.34 177.733L231.933 177.733V153.733L150.34 153.733V177.733ZM150.331 177.733H150.34V153.733H150.331V177.733ZM138.331 165.733V165.741H162.331V165.733H138.331ZM150.3 153.741L150.291 153.741L150.37 177.741L150.38 177.741L150.3 153.741ZM231.916 153.741H150.34V177.741H231.916V153.741ZM231.944 153.741L231.926 153.741L231.905 177.741L231.923 177.741L231.944 153.741ZM150.34 259.335C202.03 259.335 243.934 217.432 243.934 165.741H219.934C219.934 204.177 188.775 235.335 150.34 235.335V259.335ZM150.312 259.335L150.329 259.335L150.35 235.335L150.332 235.335L150.312 259.335ZM56.8036 169.528C58.7951 219.467 99.8998 259.335 150.322 259.335V235.335C112.834 235.335 82.2647 205.69 80.7845 168.571L56.8036 169.528ZM80.794 218.976L80.794 169.049H56.794L56.794 218.976H80.794ZM61.8867 264.622C73.9929 252.516 80.7941 236.097 80.794 218.976L56.794 218.976C56.7941 229.731 52.5215 240.046 44.9162 247.652L61.8867 264.622ZM16.2403 283.53C33.361 283.53 49.7806 276.728 61.8867 264.622L44.9162 247.652C37.3109 255.257 26.9959 259.53 16.2403 259.53V283.53ZM4.24034 218.976L4.24032 271.53H28.2403L28.2403 218.976H4.24034ZM18.0153 230.844L18.0154 230.844L14.4653 207.108L14.4652 207.108L18.0153 230.844ZM23.1258 173.16C11.0265 185.321 4.24024 201.803 4.24023 218.976L28.2402 218.976C28.2402 208.129 32.5278 197.738 40.14 190.087L23.1258 173.16ZM68.7144 154.151C51.6024 154.172 35.2084 161.015 23.1258 173.16L40.14 190.087C47.7383 182.449 58.0265 178.164 68.744 178.151L68.7144 154.151ZM56.7282 165.741C56.7282 165.898 56.7286 166.054 56.7293 166.21L80.729 166.092C80.7285 165.975 80.7282 165.858 80.7282 165.741H56.7282ZM110.555 153.741L68.7282 153.741L68.7282 177.741L110.555 177.741L110.555 153.741ZM110.555 153.741H110.555V177.741H110.555V153.741ZM122.555 165.741C122.555 165.756 122.555 165.768 122.555 165.775C122.555 165.779 122.555 165.781 122.555 165.783C122.555 165.784 122.555 165.785 122.555 165.785C122.555 165.785 122.555 165.783 122.555 165.781C122.555 165.778 122.555 165.775 122.555 165.771C122.555 165.762 122.555 165.749 122.555 165.733H98.5547C98.5547 165.718 98.5547 165.706 98.5547 165.699C98.5547 165.695 98.5547 165.692 98.5547 165.691C98.5548 165.689 98.5548 165.688 98.5548 165.689C98.5548 165.689 98.5547 165.691 98.5547 165.693C98.5547 165.695 98.5547 165.699 98.5547 165.703C98.5547 165.711 98.5546 165.725 98.5546 165.741H122.555ZM68.746 177.732L110.555 177.733L110.555 153.733L68.746 153.732L68.746 177.732ZM68.7454 177.732H68.746V153.732H68.7454V177.732ZM150.339 72.1387C98.6487 72.1387 56.7454 114.042 56.7454 165.732H80.7454C80.7454 127.297 111.904 96.1387 150.339 96.1387V72.1387ZM150.34 72.1387H150.339V96.1387H150.34V72.1387ZM210.272 93.8419C194.041 80.2983 173.128 72.1389 150.34 72.1387L150.34 96.1387C167.302 96.1388 182.819 102.192 194.895 112.269L210.272 93.8419ZM188.734 104.364L192.849 110.073L212.318 96.0384L208.203 90.3296L188.734 104.364ZM159.869 64.3213L188.734 104.364L208.203 90.3296L179.338 50.287L159.869 64.3213ZM16.2402 95.9669L83.2522 95.9669V71.9669L16.2402 71.9669L16.2402 95.9669ZM27.4041 28.3182C12.5798 43.0666 4.24023 63.0828 4.24024 83.9669L28.2402 83.9669C28.2402 69.4879 34.0211 55.5895 44.331 45.3324L27.4041 28.3182ZM83.2522 5.29859C62.3168 5.2986 42.2264 13.5719 27.4041 28.3182L44.331 45.3324C54.6431 35.0732 68.6423 29.2986 83.2522 29.2986V5.29859ZM138.879 28.34C124.126 13.5868 104.116 5.2986 83.2522 5.29859L83.2522 29.2986C97.7511 29.2986 111.656 35.0583 121.909 45.3106L138.879 28.34ZM161.921 83.9669C161.921 63.1028 153.632 43.0932 138.879 28.34L121.909 45.3106C132.161 55.5629 137.921 69.468 137.921 83.9669H161.921ZM83.2522 95.9669L149.921 95.9669V71.9669L83.2522 71.9669V95.9669ZM243.933 232.82V166.151H219.933V232.82H243.933ZM243.933 299.831V232.82H219.933V299.831H243.933ZM270.568 271.741C260.31 282.051 246.412 287.831 231.933 287.831V311.831C252.817 311.831 272.833 303.492 287.582 288.668L270.568 271.741ZM286.601 232.82C286.601 247.429 280.827 261.429 270.568 271.741L287.582 288.668C302.328 273.845 310.601 253.755 310.601 232.82H286.601ZM270.589 194.163C280.842 204.415 286.601 218.321 286.601 232.82H310.601C310.601 211.955 302.313 191.946 287.56 177.193L270.589 194.163ZM231.933 178.151C246.432 178.151 260.337 183.911 270.589 194.163L287.56 177.193C272.807 162.439 252.797 154.151 231.933 154.151V178.151ZM97.4983 235.343C80.3777 235.343 63.9581 242.145 51.852 254.251L68.8225 271.221C76.4278 263.616 86.7429 259.343 97.4983 259.343V235.343ZM150.323 235.343H97.4983V259.343H150.323V235.343ZM143.314 293.012C155.478 280.91 162.323 264.484 162.323 247.343L138.323 247.343C138.323 258.079 134.037 268.387 126.388 275.998L143.314 293.012ZM97.4983 311.897C114.671 311.897 131.153 305.111 143.314 293.012L126.388 275.998C118.736 283.61 108.346 287.897 97.4983 287.897V311.897ZM44.9446 311.897H97.4983V287.897H44.9446V311.897ZM51.852 254.251C39.7458 266.357 32.9446 282.777 32.9446 299.897H56.9446C56.9446 289.142 61.2172 278.827 68.8225 271.221L51.852 254.251Z" fill="#FAFAFA" mask="url(#path-1-outside-1_451_5672)"/>
</g>
<path d="M231.933 299.832L231.933 232.82L298.601 232.82C298.601 250.592 291.577 267.637 279.075 280.204C266.572 292.771 249.615 299.832 231.933 299.832Z" fill="#005696"/>
<path d="M231.933 299.832L231.933 232.82L298.601 232.82C298.601 250.592 291.577 267.637 279.075 280.204C266.572 292.771 249.615 299.832 231.933 299.832Z" stroke="black"/>
<path d="M231.933 166.151L231.933 232.82L298.601 232.82C298.601 215.138 291.577 198.181 279.075 185.678C266.572 173.175 249.615 166.151 231.933 166.151Z" fill="#003049"/>
<path d="M231.933 166.151L231.933 232.82L298.601 232.82C298.601 215.138 291.577 198.181 279.075 185.678C266.572 173.175 249.615 166.151 231.933 166.151Z" stroke="black"/>
<path d="M16.2402 83.9669L83.2522 83.9669L83.2522 17.2986C65.4795 17.2986 48.4348 24.3226 35.8676 36.8253C23.3004 49.328 16.2402 66.2854 16.2402 83.9669Z" fill="#005696"/>
<path d="M16.2402 83.9669L83.2522 83.9669L83.2522 17.2986C65.4795 17.2986 48.4348 24.3226 35.8676 36.8253C23.3004 49.328 16.2402 66.2854 16.2402 83.9669Z" stroke="black"/>
<path d="M149.92 83.9669L83.2521 83.9669L83.2521 17.2986C100.934 17.2986 117.891 24.3226 130.394 36.8253C142.896 49.328 149.92 66.2854 149.92 83.9669Z" fill="#003049"/>
<path d="M149.92 83.9669L83.2521 83.9669L83.2521 17.2986C100.934 17.2986 117.891 24.3226 130.394 36.8253C142.896 49.328 149.92 66.2854 149.92 83.9669Z" stroke="black"/>
<path d="M68.7939 166.151L68.7939 218.976L16.2402 218.976C16.2402 204.966 21.7771 191.53 31.6328 181.623C41.4886 171.717 54.8558 166.151 68.7939 166.151Z" fill="#005696"/>
<path d="M68.7939 166.151L68.7939 218.976L16.2402 218.976C16.2402 204.966 21.7771 191.53 31.6328 181.623C41.4886 171.717 54.8558 166.151 68.7939 166.151Z" stroke="black"/>
<path d="M16.2402 271.53L16.2402 218.976L68.794 218.976C68.794 232.914 63.2571 246.281 53.4014 256.137C43.5456 265.993 30.1784 271.53 16.2402 271.53Z" fill="#003049"/>
<path d="M16.2402 271.53L16.2402 218.976L68.794 218.976C68.794 232.914 63.2571 246.281 53.4014 256.137C43.5456 265.993 30.1784 271.53 16.2402 271.53Z" stroke="black"/>
<path d="M150.323 247.343L97.4983 247.343L97.4983 299.897C111.508 299.897 124.944 294.36 134.851 284.505C144.758 274.649 150.323 261.282 150.323 247.343Z" fill="#005696"/>
<path d="M150.323 247.343L97.4983 247.343L97.4983 299.897C111.508 299.897 124.944 294.36 134.851 284.505C144.758 274.649 150.323 261.282 150.323 247.343Z" stroke="black"/>
<path d="M44.9446 299.897L97.4984 299.897L97.4984 247.343C83.5602 247.343 70.193 252.88 60.3372 262.736C50.4815 272.592 44.9446 285.959 44.9446 299.897Z" fill="#003049"/>
<path d="M44.9446 299.897L97.4984 299.897L97.4984 247.343C83.5602 247.343 70.193 252.88 60.3372 262.736C50.4815 272.592 44.9446 285.959 44.9446 299.897Z" stroke="black"/>
<path d="M225.101 17.2986L169.604 57.3041L209.609 112.802C224.328 102.192 234.229 86.1689 237.134 68.2586C240.04 50.3483 235.711 32.0174 225.101 17.2986Z" fill="#005696"/>
<path d="M225.101 17.2986L169.604 57.3041L209.609 112.802C224.328 102.192 234.229 86.1689 237.134 68.2586C240.04 50.3483 235.711 32.0174 225.101 17.2986Z" stroke="black"/>
<path d="M209.646 28.4395L169.603 57.3042L198.468 97.3467C209.088 89.6913 216.232 78.1307 218.328 65.2081C220.425 52.2855 217.301 39.0594 209.646 28.4395Z" fill="#003049"/>
<path d="M209.646 28.4395L169.603 57.3042L198.468 97.3467C209.088 89.6913 216.232 78.1307 218.328 65.2081C220.425 52.2855 217.301 39.0594 209.646 28.4395Z" stroke="black"/>
<path d="M194.541 62.2799C196.499 64.9958 200.288 65.6104 203.003 63.6526C205.719 61.6949 206.334 57.9062 204.376 55.1903C202.418 52.4745 198.63 51.8599 195.914 53.8176C193.198 55.7754 192.583 59.5641 194.541 62.2799Z" fill="#D9D9D9"/>
<path d="M194.541 62.2799C196.499 64.9958 200.288 65.6104 203.003 63.6526C205.719 61.6949 206.334 57.9062 204.376 55.1903C202.418 52.4745 198.63 51.8599 195.914 53.8176C193.198 55.7754 192.583 59.5641 194.541 62.2799Z" stroke="black"/>
<path fill-rule="evenodd" clip-rule="evenodd" d="M68.7455 165.732C68.7455 120.669 105.276 84.1387 150.339 84.1387C195.402 84.1387 231.933 120.669 231.933 165.732C231.933 165.732 231.933 165.733 231.933 165.733L68.7455 165.732Z" fill="#780000"/>
<path fill-rule="evenodd" clip-rule="evenodd" d="M150.34 165.732L68.7461 165.732C68.7461 120.669 105.277 84.1387 150.34 84.1387V165.732Z" fill="#BF1E2D"/>
<path fill-rule="evenodd" clip-rule="evenodd" d="M150.34 165.732L68.7461 165.732C68.7461 120.669 105.277 84.1387 150.34 84.1387V165.732Z" fill="#BF1E2D"/>
<path fill-rule="evenodd" clip-rule="evenodd" d="M111.173 165.733L189.287 165.732C189.287 144.162 171.8 126.676 150.23 126.676C128.659 126.676 111.173 144.162 111.173 165.733Z" fill="#BF1E2D"/>
<path fill-rule="evenodd" clip-rule="evenodd" d="M231.916 165.741L68.7283 165.741C68.7283 210.804 105.259 247.335 150.322 247.335C195.385 247.335 231.916 210.804 231.916 165.741Z" fill="#780000"/>
<path fill-rule="evenodd" clip-rule="evenodd" d="M150.34 165.741L231.934 165.741C231.934 210.804 195.403 247.335 150.34 247.335L150.34 165.741Z" fill="#BF1E2D"/>
<path fill-rule="evenodd" clip-rule="evenodd" d="M150.34 165.741L231.934 165.741C231.934 210.804 195.403 247.335 150.34 247.335L150.34 165.741Z" fill="#BF1E2D"/>
<path fill-rule="evenodd" clip-rule="evenodd" d="M189.287 165.741C189.287 187.312 171.662 204.798 149.921 204.798C128.179 204.798 110.555 187.312 110.555 165.741L189.287 165.741Z" fill="#780000"/>
<path fill-rule="evenodd" clip-rule="evenodd" d="M150.331 165.741L110.555 165.741C110.555 187.294 128.358 204.769 150.331 204.798V165.741Z" fill="#BF1E2D"/>
<path fill-rule="evenodd" clip-rule="evenodd" d="M150.331 165.842L110.555 165.842C110.555 144.29 128.358 126.814 150.331 126.785V165.842Z" fill="#780000"/>
<defs>
<filter id="filter0_d_451_5672" x="0.240234" y="0.546997" width="314.361" height="319.35" filterUnits="userSpaceOnUse" color-interpolation-filters="sRGB">
<feFlood flood-opacity="0" result="BackgroundImageFix"/>
<feColorMatrix in="SourceAlpha" type="matrix" values="0 0 0 0 0 0 0 0 0 0 0 0 0 0 0 0 0 0 127 0" result="hardAlpha"/>
<feOffset dy="4"/>
<feGaussianBlur stdDeviation="2"/>
<feComposite in2="hardAlpha" operator="out"/>
<feColorMatrix type="matrix" values="0 0 0 0 0 0 0 0 0 0 0 0 0 0 0 0 0 0 0.25 0"/>
<feBlend mode="normal" in2="BackgroundImageFix" result="effect1_dropShadow_451_5672"/>
<feBlend mode="normal" in="SourceGraphic" in2="effect1_dropShadow_451_5672" result="shape"/>
</filter>
</defs>
</svg>
