<svg width="352" height="392" viewBox="0 0 352 392" fill="none" xmlns="http://www.w3.org/2000/svg">
<ellipse cx="195.227" cy="194.806" rx="118.729" ry="118.729" transform="rotate(13.8575 195.227 194.806)" fill="#780000"/>
<path fill-rule="evenodd" clip-rule="evenodd" d="M97.5603 171.627C84.1861 225.842 117.408 280.822 171.623 294.197C225.838 307.571 280.818 274.349 294.193 220.134C307.567 165.919 274.345 110.939 220.13 97.5643C165.915 84.1901 110.935 117.412 97.5603 171.627ZM174.764 290.353L187.628 238.204C196.691 240.648 205.3 244.354 213.243 249.233C200.833 275.558 186.281 291.053 174.764 290.353ZM170.63 289.333C160.109 284.597 154.445 264.115 155.689 235.035C164.99 234.41 174.335 235.133 183.495 237.185L170.63 289.333ZM160.202 285.061C145.781 276.833 134.708 260.971 129.326 240.61C136.509 237.997 143.961 236.242 151.499 235.402C150.697 257.377 153.819 274.962 160.202 285.061ZM185.97 291.418C196.33 285.449 207.269 271.346 216.77 251.504C223.052 255.752 228.836 260.76 233.977 266.427C219.743 281.948 202.564 290.84 185.97 291.418ZM144.918 278.436C132.466 270.745 121.896 260.315 113.963 247.771L113.966 247.758C117.622 245.663 121.432 243.788 125.35 242.16C129.278 256.739 136.057 269.231 144.918 278.436ZM202.57 292.658C214.695 288.63 226.506 280.723 236.761 269.656C239.475 272.908 241.973 276.352 244.235 279.907C231.378 287.323 217.17 291.641 202.57 292.658ZM111.791 244.108C99.6453 222.974 95.9178 198.429 101.224 174.71L101.227 174.698L125.039 180.572C120.496 200.197 120.258 219.989 124.347 237.968C120.032 239.732 115.814 241.792 111.791 244.108ZM239.634 266.431C242.641 269.999 245.414 273.78 247.895 277.696C268.476 264.636 283.191 244.64 289.525 221.175L265.713 215.301C260.599 234.771 251.605 252.402 239.634 266.431ZM236.799 263.192C231.358 257.269 225.24 252.037 218.591 247.594L218.579 247.591C224.186 235.222 228.891 221.618 232.585 207.116L261.57 214.266C256.679 232.884 248.134 249.744 236.799 263.192ZM128.344 236.437C124.563 219.261 124.841 200.361 129.169 181.604L158.142 188.751C154.668 203.308 152.506 217.539 151.718 231.097C143.768 231.925 135.916 233.725 128.344 236.437ZM215.021 245.338C206.83 240.359 197.968 236.577 188.648 234.071L197.434 198.457L228.473 206.114C224.893 220.151 220.37 233.333 215.021 245.338ZM155.942 230.751C156.775 217.645 158.913 203.875 162.276 189.771L162.279 189.759L193.318 197.416L184.53 233.042C175.101 230.923 165.509 230.153 155.942 230.751ZM290.535 217.026L266.724 211.152L266.711 211.149C271.121 192.062 271.458 172.762 267.707 155.152C272.143 153.314 276.453 151.146 280.57 148.711C292.217 169.605 295.742 193.763 290.535 217.026ZM262.602 210.135L233.629 202.988C236.956 189.031 239.082 175.362 239.955 162.305C248.057 161.436 256.056 159.569 263.734 156.74C267.184 173.524 266.795 191.929 262.602 210.135ZM229.496 201.968L198.468 194.314L206.841 160.376C216.364 162.531 226.076 163.292 235.728 162.663C234.811 175.268 232.72 188.479 229.496 201.968ZM194.323 193.292L163.295 185.637C166.715 172.196 171.007 159.529 176.058 147.943C184.31 152.989 193.265 156.82 202.695 159.354L194.323 193.292ZM159.174 184.621L130.201 177.474C134.944 159.403 143.16 142.929 154.032 129.678C159.516 135.741 165.717 141.111 172.495 145.663C167.195 157.628 162.72 170.718 159.174 184.621ZM126.055 176.451L102.244 170.577L102.231 170.574C108.441 147.558 122.796 127.811 142.825 114.731C145.336 118.802 148.156 122.728 151.217 126.415C139.709 140.248 131.028 157.503 126.055 176.451ZM207.833 156.249L221.113 102.413C231.873 107.234 237.518 128.373 235.968 158.376C226.566 159.041 217.115 158.331 207.833 156.249ZM203.711 155.232C194.526 152.759 185.829 148.991 177.815 144.03C190.396 116.749 205.224 100.66 216.992 101.396L203.711 155.232ZM174.279 141.744C167.871 137.374 162.004 132.229 156.811 126.407C171.254 110.197 188.773 100.922 205.773 100.328C195.158 106.441 183.966 121.092 174.279 141.744ZM240.174 157.999C241.215 135.214 238.106 117.049 231.554 106.688C246.33 115.108 257.523 131.479 262.771 152.546C255.465 155.284 247.879 157.111 240.174 157.999ZM154.042 123.168C151.26 119.77 148.707 116.182 146.429 112.48C159.575 104.682 174.149 100.143 189.183 99.1029C176.676 103.257 164.527 111.535 154.042 123.168ZM266.728 150.966C262.859 135.779 255.951 122.813 246.811 113.319C259.636 121.231 270.427 132.028 278.438 145.045C274.684 147.272 270.759 149.249 266.728 150.966Z" fill="#FDF0D5"/>
</svg>
