<svg width="328" height="120" viewBox="0 0 328 120" fill="none" xmlns="http://www.w3.org/2000/svg">
<path d="M3.74169 119.76L0 12.0795L267.274 2.7922L269.326 61.8352L3.74169 119.76Z" fill="#C1121F"/>
<path d="M234.191 94.9981L230.403 73.2754L269.389 63.6344L234.191 94.9981Z" fill="#C1121F"/>
<path d="M270.829 65.3154L270.714 39.0952L324.645 37.2212L264.838 72.0788L270.829 65.3154Z" fill="#C1121F"/>
<path d="M9.06756 32.69L8.61743 19.7358L45.6079 18.4505L46.0581 31.4046L35.1785 31.7827L37.1916 89.7164L48.0711 89.3384L48.4087 99.054L13.7817 105.661L13.2566 90.5481L21.9602 90.2457L19.9471 32.3119L9.06756 32.69Z" fill="#FDF0D5"/>
<path d="M41.4434 86.6865L39.6679 35.5897L48.7342 35.2746L62.4647 75.1479L59.026 17.9842L69.9056 17.6062L72.5814 94.6113L57.0874 98.0318L48.784 68.0576L49.4217 86.4093L41.4434 86.6865Z" fill="#FDF0D5"/>
<path d="M76.5455 93.753L74.0697 43.401L73.1695 17.4928L98.5551 16.6107L98.8177 24.1673L82.861 24.7217L82.9735 27.9603L98.9302 27.4058L99.2303 36.0419L83.2736 36.5963L85.2117 92.3711L76.5455 93.753Z" fill="#FDF0D5"/>
<path d="M88.1129 92.2702L86.3124 40.4537L97.9672 51.9377L100.005 89.6954L88.1129 92.2702Z" fill="#FDF0D5"/>
<path d="M97.8547 48.6992C95.0952 45.9129 89.3536 40.2039 88.4633 39.6584L87.3378 38.6167L97.4921 38.2639L97.8547 48.6992Z" fill="#FDF0D5"/>
<path d="M107.221 88.3638L103.995 16.4217L113.061 16.1066L133.157 61.5231L126.842 15.6278L143.524 15.0481L145.787 80.1786L127.029 83.7126L116.825 51.2824L118.038 86.1866L107.221 88.3638Z" fill="#FDF0D5"/>
<path d="M148.551 23.8802L148.238 14.8843L173.987 13.9896L174.299 22.9855L165.958 23.2753L166.433 68.2928L175.862 67.9651L176.075 74.0823L150.502 80.0148L150.164 70.2992L157.054 70.0597L155.441 23.6408L148.551 23.8802Z" fill="#FDF0D5"/>
<path d="M178.351 24.6461L177.976 13.851L213.516 12.616L213.891 23.4111L202.649 23.8018L204.199 68.4215L191.206 70.6744L189.593 24.2554L178.351 24.6461Z" fill="#FDF0D5"/>
<path d="M218.293 66.4907L216.417 12.5152L243.253 11.5827L244.966 19.0889L230.148 21.0449L229.747 30.4258L245.291 28.4446L245.654 38.8799L230.86 41.5556L231.185 50.9113L247.417 47.8254L248.243 61.1268L218.293 66.4907Z" fill="#FDF0D5"/>
</svg>
