<svg width="195" height="54" viewBox="0 0 195 54" fill="none" xmlns="http://www.w3.org/2000/svg">
<g filter="url(#filter0_d_759_3932)">
<path d="M170.737 35.5679V14.2153H162.316V9.25305H185.248V14.2153H176.827V35.5679H170.737Z" fill="#780000"/>
<path d="M169.237 35.5679V37.0679H170.737H176.827H178.327V35.5679V15.7153H185.248H186.748V14.2153V9.25305V7.75305H185.248H162.316H160.816V9.25305V14.2153V15.7153H162.316H169.237V35.5679Z" stroke="#FDF0D5" stroke-width="3"/>
</g>
<g filter="url(#filter1_d_759_3932)">
<path d="M139.773 41.6579C136.039 41.6579 133.119 40.6179 131.014 38.5377C128.909 36.4576 127.856 33.4878 127.856 29.6283V14.892H133.946V29.4027C133.946 31.9089 134.46 33.7134 135.488 34.8161C136.515 35.9188 137.956 36.4701 139.811 36.4701C141.665 36.4701 143.106 35.9188 144.134 34.8161C145.161 33.7134 145.675 31.9089 145.675 29.4027V14.892H151.69V29.6283C151.69 33.4878 150.637 36.4576 148.532 38.5377C146.427 40.6179 143.507 41.6579 139.773 41.6579Z" fill="#780000"/>
<path d="M127.856 13.392H126.356V14.892V29.6283C126.356 33.7615 127.49 37.1645 129.96 39.6047C132.414 42.0303 135.753 43.1579 139.773 43.1579C143.793 43.1579 147.132 42.0303 149.586 39.6047C152.056 37.1645 153.19 33.7615 153.19 29.6283V14.892V13.392H151.69H145.675H144.175V14.892V29.4027C144.175 31.765 143.68 33.1027 143.036 33.7935C142.356 34.5238 141.352 34.9701 139.811 34.9701C138.269 34.9701 137.265 34.5238 136.585 33.7935C135.941 33.1027 135.446 31.765 135.446 29.4027V14.892V13.392H133.946H127.856Z" stroke="#FDF0D5" stroke-width="3"/>
</g>
<g filter="url(#filter2_d_759_3932)">
<path d="M100.94 36.4701C98.8597 36.4701 96.93 36.1318 95.1506 35.4551C93.3963 34.7785 91.8675 33.8261 90.5643 32.5981C89.2861 31.3701 88.2837 29.929 87.5569 28.2749C86.8551 26.6208 86.5043 24.8164 86.5043 22.8616C86.5043 20.9068 86.8551 19.1023 87.5569 17.4482C88.2837 15.7942 89.2987 14.3531 90.6019 13.1251C91.9051 11.8971 93.4339 10.9447 95.1882 10.2681C96.9425 9.59138 98.8472 9.25305 100.902 9.25305C102.982 9.25305 104.887 9.59138 106.616 10.2681C108.371 10.9447 109.887 11.8971 111.165 13.1251C112.468 14.3531 113.483 15.7942 114.21 17.4482C114.937 19.0773 115.3 20.8817 115.3 22.8616C115.3 24.8164 114.937 26.6334 114.21 28.3125C113.483 29.9666 112.468 31.4076 111.165 32.6357C109.887 33.8386 108.371 34.7785 106.616 35.4551C104.887 36.1318 102.995 36.4701 100.94 36.4701ZM100.902 31.2823C102.08 31.2823 103.158 31.0818 104.135 30.6809C105.138 30.2799 106.015 29.7034 106.767 28.9516C107.519 28.1997 108.095 27.31 108.496 26.2825C108.922 25.255 109.135 24.1147 109.135 22.8616C109.135 21.6085 108.922 20.4682 108.496 19.4407C108.095 18.4131 107.519 17.5234 106.767 16.7716C106.04 16.0197 105.175 15.4433 104.173 15.0423C103.17 14.6413 102.08 14.4408 100.902 14.4408C99.7244 14.4408 98.6342 14.6413 97.6317 15.0423C96.6543 15.4433 95.7897 16.0197 95.0378 16.7716C94.2859 17.5234 93.697 18.4131 93.271 19.4407C92.87 20.4682 92.6695 21.6085 92.6695 22.8616C92.6695 24.0896 92.87 25.2299 93.271 26.2825C93.697 27.31 94.2734 28.1997 95.0002 28.9516C95.7521 29.7034 96.6292 30.2799 97.6317 30.6809C98.6342 31.0818 99.7244 31.2823 100.902 31.2823Z" fill="#780000"/>
<path d="M94.6108 36.8546L94.6174 36.8572C96.5822 37.6043 98.6944 37.9701 100.94 37.9701C103.161 37.9701 105.239 37.6042 107.159 36.8533C109.08 36.1119 110.765 35.0724 112.193 33.728L112.194 33.7274C113.645 32.3601 114.776 30.7525 115.583 28.9159L115.583 28.9159L115.587 28.9084C116.4 27.0285 116.8 25.0071 116.8 22.8616C116.8 20.696 116.402 18.6816 115.582 16.8412C114.776 15.0084 113.647 13.4037 112.199 12.0385C110.771 10.6673 109.085 9.61285 107.16 8.86986C105.237 8.11823 103.146 7.75305 100.902 7.75305C98.6798 7.75305 96.5903 8.11954 94.6484 8.86855C92.7219 9.61161 91.0249 10.6654 89.5732 12.0334C88.1222 13.4007 86.9906 15.0082 86.1836 16.8448L86.1797 16.8536L86.176 16.8624C85.389 18.7176 85.0043 20.7233 85.0043 22.8616C85.0043 24.9998 85.389 27.0056 86.176 28.8608L86.1797 28.8696L86.1836 28.8783C86.9878 30.7086 88.1025 32.313 89.525 33.6797L89.5303 33.6848L89.5356 33.6898C90.9873 35.0577 92.6843 36.1116 94.6108 36.8546ZM103.578 29.2881L103.578 29.2881L103.566 29.2931C102.789 29.6119 101.907 29.7823 100.902 29.7823C99.8978 29.7823 98.9986 29.6121 98.1888 29.2881C97.376 28.963 96.6738 28.5015 96.0699 27.8999C95.4907 27.2985 95.0208 26.5799 94.665 25.7282C94.3396 24.8663 94.1695 23.9153 94.1695 22.8616C94.1695 21.7763 94.3417 20.8288 94.6627 20.0006C95.0163 19.1526 95.4956 18.4351 96.0985 17.8322C96.7092 17.2215 97.4051 16.7575 98.1949 16.4326C99.0031 16.1103 99.9003 15.9408 100.902 15.9408C101.907 15.9408 102.806 16.1111 103.616 16.435C104.428 16.76 105.113 17.2195 105.688 17.8141L105.697 17.8232L105.706 17.8322C106.306 18.4319 106.77 19.1443 107.099 19.986L107.104 20.0006L107.11 20.0152C107.452 20.8389 107.635 21.7808 107.635 22.8616C107.635 23.9424 107.452 24.8842 107.11 25.708L107.104 25.7225L107.099 25.7372C106.77 26.5789 106.306 27.2912 105.706 27.8909C105.1 28.4969 104.395 28.9614 103.578 29.2881Z" stroke="#FDF0D5" stroke-width="3"/>
</g>
<g filter="url(#filter3_d_759_3932)">
<path d="M52.0443 34.3148V8H64.901C68.2091 8 70.6903 8.62654 72.3443 9.87963C74.0235 11.1327 74.863 12.7868 74.863 14.8419C74.863 16.2203 74.5247 17.4232 73.848 18.4508C73.1714 19.4532 72.2441 20.2301 71.0662 20.7815C69.8883 21.3329 68.5349 21.6085 67.0062 21.6085L67.7204 20.0672C69.3745 20.0672 70.8406 20.3429 72.1188 20.8943C73.3969 21.4206 74.3869 22.21 75.0886 23.2626C75.8154 24.3152 76.1788 25.6059 76.1788 27.1347C76.1788 29.3902 75.2891 31.1571 73.5097 32.4352C71.7303 33.6883 69.1114 34.3148 65.6528 34.3148H52.0443ZM58.0967 29.7285H65.2017C66.7806 29.7285 67.9711 29.4779 68.773 28.9767C69.6001 28.4504 70.0136 27.6234 70.0136 26.4956C70.0136 25.3929 69.6001 24.5784 68.773 24.0521C67.9711 23.5007 66.7806 23.225 65.2017 23.225H57.6456V18.7891H64.1491C65.6278 18.7891 66.7556 18.5385 67.5325 18.0372C68.3345 17.5109 68.7354 16.7215 68.7354 15.6689C68.7354 14.6414 68.3345 13.877 67.5325 13.3757C66.7556 12.8495 65.6278 12.5863 64.1491 12.5863H58.0967V29.7285Z" fill="#780000"/>
<path d="M50.5443 34.3148V35.8148H52.0443H65.6528C69.2526 35.8148 72.2319 35.1697 74.3734 33.6616L74.3734 33.6617L74.3848 33.6535C76.57 32.0838 77.6788 29.8563 77.6788 27.1347C77.6788 25.3665 77.2564 23.7671 76.3299 22.4205C75.7718 21.5861 75.0725 20.8924 74.2482 20.3364C74.5562 20.0145 74.8377 19.6657 75.0913 19.29L75.0961 19.2829L75.1008 19.2757C75.9577 17.9745 76.363 16.477 76.363 14.8419C76.363 12.3044 75.2927 10.2101 73.2457 8.68065C71.2169 7.1459 68.3533 6.5 64.901 6.5H52.0443H50.5443V8V34.3148ZM59.5967 28.2285V24.725H65.2017C66.6494 24.725 67.4831 24.9855 67.9232 25.2881L67.9452 25.3032L67.9677 25.3176C68.3018 25.5302 68.5136 25.83 68.5136 26.4956C68.5136 27.197 68.2934 27.5021 67.9734 27.7076C67.5193 27.9894 66.6624 28.2285 65.2017 28.2285H59.5967ZM64.1491 17.2891H59.5967V14.0863H64.1491C65.487 14.0863 66.2679 14.3309 66.6912 14.6176L66.7141 14.6331L66.7375 14.6477C67.0573 14.8476 67.2354 15.1049 67.2354 15.6689C67.2354 16.2712 67.0445 16.5617 66.7146 16.7798C66.2841 17.0556 65.492 17.2891 64.1491 17.2891Z" stroke="#FDF0D5" stroke-width="3"/>
</g>
<g filter="url(#filter4_d_759_3932)">
<path d="M12 39.3272L23.7289 13.0123H29.7437L41.5102 39.3272H35.1195L25.4958 16.0949H27.9017L18.2404 39.3272H12ZM17.8645 33.6883L19.4809 29.0644H33.0143L34.6684 33.6883H17.8645Z" fill="#780000"/>
<path d="M10.6299 38.7165L9.68918 40.8272H12H18.2404H19.2411L19.6254 39.9031L21.5861 35.1883H31.7814L33.7337 39.9012L34.1172 40.8272H35.1195H41.5102H43.8241L42.8796 38.7149L31.1131 12.4L30.7161 11.5123H29.7437H23.7289H22.7552L22.3588 12.4017L10.6299 38.7165ZM26.6937 22.9063L28.6233 27.5644H24.7566L26.6937 22.9063Z" stroke="#FDF0D5" stroke-width="3"/>
</g>
<defs>
<filter id="filter0_d_759_3932" x="152.816" y="1.75305" width="41.9315" height="45.3148" filterUnits="userSpaceOnUse" color-interpolation-filters="sRGB">
<feFlood flood-opacity="0" result="BackgroundImageFix"/>
<feColorMatrix in="SourceAlpha" type="matrix" values="0 0 0 0 0 0 0 0 0 0 0 0 0 0 0 0 0 0 127 0" result="hardAlpha"/>
<feOffset dy="2"/>
<feGaussianBlur stdDeviation="3.25"/>
<feComposite in2="hardAlpha" operator="out"/>
<feColorMatrix type="matrix" values="0 0 0 0 0 0 0 0 0 0 0 0 0 0 0 0 0 0 0.25 0"/>
<feBlend mode="normal" in2="BackgroundImageFix" result="effect1_dropShadow_759_3932"/>
<feBlend mode="normal" in="SourceGraphic" in2="effect1_dropShadow_759_3932" result="shape"/>
</filter>
<filter id="filter1_d_759_3932" x="118.356" y="7.39197" width="42.8337" height="45.766" filterUnits="userSpaceOnUse" color-interpolation-filters="sRGB">
<feFlood flood-opacity="0" result="BackgroundImageFix"/>
<feColorMatrix in="SourceAlpha" type="matrix" values="0 0 0 0 0 0 0 0 0 0 0 0 0 0 0 0 0 0 127 0" result="hardAlpha"/>
<feOffset dy="2"/>
<feGaussianBlur stdDeviation="3.25"/>
<feComposite in2="hardAlpha" operator="out"/>
<feColorMatrix type="matrix" values="0 0 0 0 0 0 0 0 0 0 0 0 0 0 0 0 0 0 0.25 0"/>
<feBlend mode="normal" in2="BackgroundImageFix" result="effect1_dropShadow_759_3932"/>
<feBlend mode="normal" in="SourceGraphic" in2="effect1_dropShadow_759_3932" result="shape"/>
</filter>
<filter id="filter2_d_759_3932" x="77.0043" y="1.75305" width="47.796" height="46.217" filterUnits="userSpaceOnUse" color-interpolation-filters="sRGB">
<feFlood flood-opacity="0" result="BackgroundImageFix"/>
<feColorMatrix in="SourceAlpha" type="matrix" values="0 0 0 0 0 0 0 0 0 0 0 0 0 0 0 0 0 0 127 0" result="hardAlpha"/>
<feOffset dy="2"/>
<feGaussianBlur stdDeviation="3.25"/>
<feComposite in2="hardAlpha" operator="out"/>
<feColorMatrix type="matrix" values="0 0 0 0 0 0 0 0 0 0 0 0 0 0 0 0 0 0 0.25 0"/>
<feBlend mode="normal" in2="BackgroundImageFix" result="effect1_dropShadow_759_3932"/>
<feBlend mode="normal" in="SourceGraphic" in2="effect1_dropShadow_759_3932" result="shape"/>
</filter>
<filter id="filter3_d_759_3932" x="42.5443" y="0.5" width="43.1345" height="45.3148" filterUnits="userSpaceOnUse" color-interpolation-filters="sRGB">
<feFlood flood-opacity="0" result="BackgroundImageFix"/>
<feColorMatrix in="SourceAlpha" type="matrix" values="0 0 0 0 0 0 0 0 0 0 0 0 0 0 0 0 0 0 127 0" result="hardAlpha"/>
<feOffset dy="2"/>
<feGaussianBlur stdDeviation="3.25"/>
<feComposite in2="hardAlpha" operator="out"/>
<feColorMatrix type="matrix" values="0 0 0 0 0 0 0 0 0 0 0 0 0 0 0 0 0 0 0.25 0"/>
<feBlend mode="normal" in2="BackgroundImageFix" result="effect1_dropShadow_759_3932"/>
<feBlend mode="normal" in="SourceGraphic" in2="effect1_dropShadow_759_3932" result="shape"/>
</filter>
<filter id="filter4_d_759_3932" x="0.878296" y="5.51233" width="51.7596" height="45.3148" filterUnits="userSpaceOnUse" color-interpolation-filters="sRGB">
<feFlood flood-opacity="0" result="BackgroundImageFix"/>
<feColorMatrix in="SourceAlpha" type="matrix" values="0 0 0 0 0 0 0 0 0 0 0 0 0 0 0 0 0 0 127 0" result="hardAlpha"/>
<feOffset dy="2"/>
<feGaussianBlur stdDeviation="3.25"/>
<feComposite in2="hardAlpha" operator="out"/>
<feColorMatrix type="matrix" values="0 0 0 0 0 0 0 0 0 0 0 0 0 0 0 0 0 0 0.25 0"/>
<feBlend mode="normal" in2="BackgroundImageFix" result="effect1_dropShadow_759_3932"/>
<feBlend mode="normal" in="SourceGraphic" in2="effect1_dropShadow_759_3932" result="shape"/>
</filter>
</defs>
</svg>
