<svg width="696" height="90" viewBox="0 0 696 90" fill="none" xmlns="http://www.w3.org/2000/svg">
<g filter="url(#filter0_d_427_3054)">
<g filter="url(#filter1_d_427_3054)">
<path d="M610.622 62V27.92H597.182V20H633.782V27.92H620.342V62H610.622Z" fill="#780000"/>
<path d="M608.122 62V64.5H610.622H620.342H622.842V62V30.42H633.782H636.282V27.92V20V17.5H633.782H597.182H594.682V20V27.92V30.42H597.182H608.122V62Z" stroke="#FDF0D5" stroke-width="5"/>
</g>
<g filter="url(#filter2_d_427_3054)">
<path d="M570.913 52V10H580.633V52H570.913Z" fill="#780000"/>
<path d="M568.413 52V54.5H570.913H580.633H583.133V52V10V7.5H580.633H570.913H568.413V10V52Z" stroke="#FDF0D5" stroke-width="5"/>
</g>
<g filter="url(#filter3_d_427_3054)">
<path d="M478.09 69V27H487.81V69H478.09Z" fill="#780000"/>
<path d="M475.59 69V71.5H478.09H487.81H490.31V69V27V24.5H487.81H478.09H475.59V27V69Z" stroke="#FDF0D5" stroke-width="5"/>
</g>
<g filter="url(#filter4_d_427_3054)">
<path d="M436.913 52.9H457.073V60.7H436.913V52.9ZM437.633 76H427.913V34H459.653V41.8H437.633V76Z" fill="#780000"/>
<path d="M440.133 76V63.2H457.073H459.573V60.7V52.9V50.4H457.073H440.133V44.3H459.653H462.153V41.8V34V31.5H459.653H427.913H425.413V34V76V78.5H427.913H437.633H440.133V76Z" stroke="#FDF0D5" stroke-width="5"/>
</g>
<g filter="url(#filter5_d_427_3054)">
<path d="M367.913 72V30H375.953L400.733 60.24H396.833V30H406.433V72H398.453L373.613 41.76H377.513V72H367.913Z" fill="#780000"/>
<path d="M365.413 72V74.5H367.913H377.513H380.013V72V53.4899L396.521 73.5869L397.271 74.5H398.453H406.433H408.933V72V30V27.5H406.433H396.833H394.333V30V48.4855L377.887 28.4154L377.137 27.5H375.953H367.913H365.413V30V72Z" stroke="#FDF0D5" stroke-width="5"/>
</g>
<g filter="url(#filter6_d_427_3054)">
<path d="M336.913 60V18H346.633V60H336.913Z" fill="#780000"/>
<path d="M334.413 60V62.5H336.913H346.633H349.133V60V18V15.5H346.633H336.913H334.413V18V60Z" stroke="#FDF0D5" stroke-width="5"/>
</g>
<g filter="url(#filter7_d_427_3054)">
<path d="M509.778 59V17H517.818L542.598 47.24H538.698V17H548.298V59H540.318L515.478 28.76H519.378V59H509.778Z" fill="#780000"/>
<path d="M507.278 59V61.5H509.778H519.378H521.878V59V40.4899L538.386 60.5869L539.136 61.5H540.318H548.298H550.798V59V17V14.5H548.298H538.698H536.198V17V35.4855L519.752 15.4154L519.001 14.5H517.818H509.778H507.278V17V59Z" stroke="#FDF0D5" stroke-width="5"/>
</g>
<g filter="url(#filter8_d_427_3054)">
<path d="M268.353 66V31.92H254.913V24H291.513V31.92H278.073V66H268.353Z" fill="#780000"/>
<path d="M265.853 66V68.5H268.353H278.073H280.573V66V34.42H291.513H294.013V31.92V24V21.5H291.513H254.913H252.413V24V31.92V34.42H254.913H265.853V66Z" stroke="#FDF0D5" stroke-width="5"/>
</g>
<g filter="url(#filter9_d_427_3054)">
<path d="M218.933 75.72C212.973 75.72 208.313 74.06 204.953 70.74C201.593 67.42 199.913 62.68 199.913 56.52V33H209.633V56.16C209.633 60.16 210.453 63.04 212.093 64.8C213.733 66.56 216.033 67.44 218.993 67.44C221.953 67.44 224.253 66.56 225.893 64.8C227.533 63.04 228.353 60.16 228.353 56.16V33H237.953V56.52C237.953 62.68 236.273 67.42 232.913 70.74C229.553 74.06 224.893 75.72 218.933 75.72Z" fill="#780000"/>
<path d="M199.913 30.5H197.413V33V56.52C197.413 63.1363 199.228 68.5981 203.196 72.5183C207.139 76.414 212.496 78.22 218.933 78.22C225.37 78.22 230.728 76.414 234.67 72.5183C238.638 68.5981 240.453 63.1363 240.453 56.52V33V30.5H237.953H228.353H225.853V33V56.16C225.853 59.9202 225.064 62.0223 224.064 63.0957C223.002 64.235 221.431 64.94 218.993 64.94C216.555 64.94 214.984 64.235 213.922 63.0957C212.922 62.0223 212.133 59.9202 212.133 56.16V33V30.5H209.633H199.913Z" stroke="#FDF0D5" stroke-width="5"/>
</g>
<g filter="url(#filter10_d_427_3054)">
<path d="M156.953 67.44C153.633 67.44 150.553 66.9 147.713 65.82C144.913 64.74 142.473 63.22 140.393 61.26C138.353 59.3 136.753 57 135.593 54.36C134.473 51.72 133.913 48.84 133.913 45.72C133.913 42.6 134.473 39.72 135.593 37.08C136.753 34.44 138.373 32.14 140.453 30.18C142.533 28.22 144.973 26.7 147.773 25.62C150.573 24.54 153.613 24 156.893 24C160.213 24 163.253 24.54 166.013 25.62C168.813 26.7 171.233 28.22 173.273 30.18C175.353 32.14 176.973 34.44 178.133 37.08C179.293 39.68 179.873 42.56 179.873 45.72C179.873 48.84 179.293 51.74 178.133 54.42C176.973 57.06 175.353 59.36 173.273 61.32C171.233 63.24 168.813 64.74 166.013 65.82C163.253 66.9 160.233 67.44 156.953 67.44ZM156.893 59.16C158.773 59.16 160.493 58.84 162.053 58.2C163.653 57.56 165.053 56.64 166.253 55.44C167.453 54.24 168.373 52.82 169.013 51.18C169.693 49.54 170.033 47.72 170.033 45.72C170.033 43.72 169.693 41.9 169.013 40.26C168.373 38.62 167.453 37.2 166.253 36C165.093 34.8 163.713 33.88 162.113 33.24C160.513 32.6 158.773 32.28 156.893 32.28C155.013 32.28 153.273 32.6 151.673 33.24C150.113 33.88 148.733 34.8 147.533 36C146.333 37.2 145.393 38.62 144.713 40.26C144.073 41.9 143.753 43.72 143.753 45.72C143.753 47.68 144.073 49.5 144.713 51.18C145.393 52.82 146.313 54.24 147.473 55.44C148.673 56.64 150.073 57.56 151.673 58.2C153.273 58.84 155.013 59.16 156.893 59.16Z" fill="#780000"/>
<path d="M146.813 68.1525L146.813 68.1525L146.824 68.1567C149.974 69.3543 153.358 69.94 156.953 69.94C160.509 69.94 163.84 69.354 166.918 68.1504C169.996 66.9625 172.696 65.2964 174.987 63.1405L174.988 63.1395C177.314 60.9474 179.128 58.3699 180.422 55.4257L180.422 55.4257L180.427 55.4131C181.732 52.3985 182.373 49.1579 182.373 45.72C182.373 42.2504 181.735 39.0203 180.419 36.068C179.127 33.1302 177.317 30.5576 174.996 28.3689C172.706 26.1703 170.003 24.4801 166.918 23.2896C163.837 22.0847 160.485 21.5 156.893 21.5C153.334 21.5 149.986 22.0869 146.873 23.2875C143.787 24.4782 141.066 26.1673 138.739 28.3605C136.412 30.5526 134.598 33.1301 133.304 36.0743L133.298 36.0889L133.292 36.1036C132.029 39.0787 131.413 42.2943 131.413 45.72C131.413 49.1457 132.029 52.3613 133.292 55.3364L133.298 55.3511L133.304 55.3657C134.593 58.2993 136.38 60.8716 138.661 63.0628L138.67 63.0712L138.679 63.0795C141.006 65.2727 143.727 66.9618 146.813 68.1525ZM161.125 55.8788L161.114 55.8829L161.104 55.8871C159.878 56.3901 158.485 56.66 156.893 56.66C155.302 56.66 153.88 56.3904 152.602 55.8788C151.318 55.3653 150.209 54.6367 149.256 53.6872C148.342 52.7379 147.599 51.603 147.037 50.2562C146.522 48.8939 146.253 47.3895 146.253 45.72C146.253 43.9997 146.526 42.5011 147.033 41.1931C147.592 39.8525 148.349 38.7194 149.301 37.7678C150.266 36.803 151.364 36.0704 152.612 35.5571C153.888 35.0482 155.306 34.78 156.893 34.78C158.484 34.78 159.906 35.0496 161.185 35.5612C162.468 36.0745 163.549 36.7996 164.456 37.7376L164.47 37.7528L164.485 37.7678C165.432 38.7142 166.165 39.8386 166.684 41.1689L166.694 41.1933L166.704 41.2175C167.243 42.5179 167.533 44.0071 167.533 45.72C167.533 47.4329 167.243 48.9221 166.704 50.2225L166.694 50.2467L166.684 50.2711C166.165 51.6014 165.432 52.7258 164.485 53.6722C163.528 54.6291 162.415 55.3626 161.125 55.8788Z" stroke="#FDF0D5" stroke-width="5"/>
</g>
<g filter="url(#filter11_d_427_3054)">
<path d="M15 72L33.72 30H43.32L62.1 72H51.9L36.54 34.92H40.38L24.96 72H15ZM24.36 63L26.94 55.62H48.54L51.18 63H24.36Z" fill="#780000"/>
<path d="M12.7165 70.9822L11.1486 74.5H15H24.96H26.6279L27.2684 72.9599L30.3706 65.5H46.5014L49.5903 72.9568L50.2296 74.5H51.9H62.1H65.9564L64.3822 70.9795L45.6022 28.9795L44.9407 27.5H43.32H33.72H32.0972L31.4366 28.9822L12.7165 70.9822ZM38.4518 46.0676L41.3732 53.12H35.5189L38.4518 46.0676Z" stroke="#FDF0D5" stroke-width="5"/>
</g>
<g filter="url(#filter12_d_427_3054)">
<path d="M78.9131 64V22H99.4331C104.713 22 108.673 23 111.313 25C113.993 27 115.333 29.64 115.333 32.92C115.333 35.12 114.793 37.04 113.713 38.68C112.633 40.28 111.153 41.52 109.273 42.4C107.393 43.28 105.233 43.72 102.793 43.72L103.933 41.26C106.573 41.26 108.913 41.7 110.953 42.58C112.993 43.42 114.573 44.68 115.693 46.36C116.853 48.04 117.433 50.1 117.433 52.54C117.433 56.14 116.013 58.96 113.173 61C110.333 63 106.153 64 100.633 64H78.9131ZM88.5731 56.68H99.9131C102.433 56.68 104.333 56.28 105.613 55.48C106.933 54.64 107.593 53.32 107.593 51.52C107.593 49.76 106.933 48.46 105.613 47.62C104.333 46.74 102.433 46.3 99.9131 46.3H87.8531V39.22H98.2331C100.593 39.22 102.393 38.82 103.633 38.02C104.913 37.18 105.553 35.92 105.553 34.24C105.553 32.6 104.913 31.38 103.633 30.58C102.393 29.74 100.593 29.32 98.2331 29.32H88.5731V56.68Z" fill="#780000"/>
<path d="M76.4131 64V66.5H78.9131H100.633C106.388 66.5 111.169 65.469 114.613 63.044L114.622 63.0373L114.632 63.0305C118.148 60.5046 119.933 56.9169 119.933 52.54C119.933 49.7009 119.255 47.1265 117.762 44.9564C116.886 43.6478 115.796 42.5546 114.514 41.6722C114.976 41.1795 115.401 40.6484 115.785 40.0787L115.793 40.0669L115.801 40.055C117.181 37.9588 117.833 35.5479 117.833 32.92C117.833 28.8359 116.108 25.4622 112.815 23.0016C109.551 20.5322 104.953 19.5 99.4331 19.5H78.9131H76.4131V22V64ZM98.2331 36.72H91.0731V31.82H98.2331C100.358 31.82 101.58 32.209 102.231 32.6498L102.269 32.6756L102.308 32.7C102.784 32.9977 103.053 33.3726 103.053 34.24C103.053 35.1697 102.763 35.5982 102.27 35.9245C101.607 36.3487 100.366 36.72 98.2331 36.72ZM91.0731 54.18V48.8H99.9131C102.214 48.8 103.52 49.2148 104.197 49.6801L104.233 49.7053L104.271 49.7292C104.769 50.0464 105.093 50.4885 105.093 51.52C105.093 52.6098 104.755 53.06 104.279 53.3654C103.579 53.7995 102.235 54.18 99.9131 54.18H91.0731Z" stroke="#FDF0D5" stroke-width="5"/>
</g>
<g filter="url(#filter13_d_427_3054)">
<path d="M659.952 42.92H680.172V50.48H659.952V42.92ZM660.672 60.2H683.532V68H651.012V26H682.752V33.8H660.672V60.2Z" fill="#780000"/>
<path d="M663.172 57.7V52.98H680.172H682.672V50.48V42.92V40.42H680.172H663.172V36.3H682.752H685.252V33.8V26V23.5H682.752H651.012H648.512V26V68V70.5H651.012H683.532H686.032V68V60.2V57.7H683.532H663.172Z" stroke="#FDF0D5" stroke-width="5"/>
</g>
</g>
<defs>
<filter id="filter0_d_427_3054" x="7.29736" y="5" width="685.235" height="80" filterUnits="userSpaceOnUse" color-interpolation-filters="sRGB">
<feFlood flood-opacity="0" result="BackgroundImageFix"/>
<feColorMatrix in="SourceAlpha" type="matrix" values="0 0 0 0 0 0 0 0 0 0 0 0 0 0 0 0 0 0 127 0" result="hardAlpha"/>
<feOffset dx="4" dy="4"/>
<feComposite in2="hardAlpha" operator="out"/>
<feColorMatrix type="matrix" values="0 0 0 0 0 0 0 0 0 0 0 0 0 0 0 0 0 0 0.25 0"/>
<feBlend mode="normal" in2="BackgroundImageFix" result="effect1_dropShadow_427_3054"/>
<feBlend mode="normal" in="SourceGraphic" in2="effect1_dropShadow_427_3054" result="shape"/>
</filter>
<filter id="filter1_d_427_3054" x="585.682" y="10.5" width="59.5999" height="65" filterUnits="userSpaceOnUse" color-interpolation-filters="sRGB">
<feFlood flood-opacity="0" result="BackgroundImageFix"/>
<feColorMatrix in="SourceAlpha" type="matrix" values="0 0 0 0 0 0 0 0 0 0 0 0 0 0 0 0 0 0 127 0" result="hardAlpha"/>
<feOffset dy="2"/>
<feGaussianBlur stdDeviation="3.25"/>
<feComposite in2="hardAlpha" operator="out"/>
<feColorMatrix type="matrix" values="0 0 0 0 0 0 0 0 0 0 0 0 0 0 0 0 0 0 0.25 0"/>
<feBlend mode="normal" in2="BackgroundImageFix" result="effect1_dropShadow_427_3054"/>
<feBlend mode="normal" in="SourceGraphic" in2="effect1_dropShadow_427_3054" result="shape"/>
</filter>
<filter id="filter2_d_427_3054" x="559.413" y="0.5" width="32.72" height="65" filterUnits="userSpaceOnUse" color-interpolation-filters="sRGB">
<feFlood flood-opacity="0" result="BackgroundImageFix"/>
<feColorMatrix in="SourceAlpha" type="matrix" values="0 0 0 0 0 0 0 0 0 0 0 0 0 0 0 0 0 0 127 0" result="hardAlpha"/>
<feOffset dy="2"/>
<feGaussianBlur stdDeviation="3.25"/>
<feComposite in2="hardAlpha" operator="out"/>
<feColorMatrix type="matrix" values="0 0 0 0 0 0 0 0 0 0 0 0 0 0 0 0 0 0 0.25 0"/>
<feBlend mode="normal" in2="BackgroundImageFix" result="effect1_dropShadow_427_3054"/>
<feBlend mode="normal" in="SourceGraphic" in2="effect1_dropShadow_427_3054" result="shape"/>
</filter>
<filter id="filter3_d_427_3054" x="466.59" y="17.5" width="32.72" height="65" filterUnits="userSpaceOnUse" color-interpolation-filters="sRGB">
<feFlood flood-opacity="0" result="BackgroundImageFix"/>
<feColorMatrix in="SourceAlpha" type="matrix" values="0 0 0 0 0 0 0 0 0 0 0 0 0 0 0 0 0 0 127 0" result="hardAlpha"/>
<feOffset dy="2"/>
<feGaussianBlur stdDeviation="3.25"/>
<feComposite in2="hardAlpha" operator="out"/>
<feColorMatrix type="matrix" values="0 0 0 0 0 0 0 0 0 0 0 0 0 0 0 0 0 0 0.25 0"/>
<feBlend mode="normal" in2="BackgroundImageFix" result="effect1_dropShadow_427_3054"/>
<feBlend mode="normal" in="SourceGraphic" in2="effect1_dropShadow_427_3054" result="shape"/>
</filter>
<filter id="filter4_d_427_3054" x="416.413" y="24.5" width="54.74" height="65" filterUnits="userSpaceOnUse" color-interpolation-filters="sRGB">
<feFlood flood-opacity="0" result="BackgroundImageFix"/>
<feColorMatrix in="SourceAlpha" type="matrix" values="0 0 0 0 0 0 0 0 0 0 0 0 0 0 0 0 0 0 127 0" result="hardAlpha"/>
<feOffset dy="2"/>
<feGaussianBlur stdDeviation="3.25"/>
<feComposite in2="hardAlpha" operator="out"/>
<feColorMatrix type="matrix" values="0 0 0 0 0 0 0 0 0 0 0 0 0 0 0 0 0 0 0.25 0"/>
<feBlend mode="normal" in2="BackgroundImageFix" result="effect1_dropShadow_427_3054"/>
<feBlend mode="normal" in="SourceGraphic" in2="effect1_dropShadow_427_3054" result="shape"/>
</filter>
<filter id="filter5_d_427_3054" x="356.413" y="20.5" width="61.52" height="65" filterUnits="userSpaceOnUse" color-interpolation-filters="sRGB">
<feFlood flood-opacity="0" result="BackgroundImageFix"/>
<feColorMatrix in="SourceAlpha" type="matrix" values="0 0 0 0 0 0 0 0 0 0 0 0 0 0 0 0 0 0 127 0" result="hardAlpha"/>
<feOffset dy="2"/>
<feGaussianBlur stdDeviation="3.25"/>
<feComposite in2="hardAlpha" operator="out"/>
<feColorMatrix type="matrix" values="0 0 0 0 0 0 0 0 0 0 0 0 0 0 0 0 0 0 0.25 0"/>
<feBlend mode="normal" in2="BackgroundImageFix" result="effect1_dropShadow_427_3054"/>
<feBlend mode="normal" in="SourceGraphic" in2="effect1_dropShadow_427_3054" result="shape"/>
</filter>
<filter id="filter6_d_427_3054" x="325.413" y="8.5" width="32.72" height="65" filterUnits="userSpaceOnUse" color-interpolation-filters="sRGB">
<feFlood flood-opacity="0" result="BackgroundImageFix"/>
<feColorMatrix in="SourceAlpha" type="matrix" values="0 0 0 0 0 0 0 0 0 0 0 0 0 0 0 0 0 0 127 0" result="hardAlpha"/>
<feOffset dy="2"/>
<feGaussianBlur stdDeviation="3.25"/>
<feComposite in2="hardAlpha" operator="out"/>
<feColorMatrix type="matrix" values="0 0 0 0 0 0 0 0 0 0 0 0 0 0 0 0 0 0 0.25 0"/>
<feBlend mode="normal" in2="BackgroundImageFix" result="effect1_dropShadow_427_3054"/>
<feBlend mode="normal" in="SourceGraphic" in2="effect1_dropShadow_427_3054" result="shape"/>
</filter>
<filter id="filter7_d_427_3054" x="498.278" y="7.5" width="61.52" height="65" filterUnits="userSpaceOnUse" color-interpolation-filters="sRGB">
<feFlood flood-opacity="0" result="BackgroundImageFix"/>
<feColorMatrix in="SourceAlpha" type="matrix" values="0 0 0 0 0 0 0 0 0 0 0 0 0 0 0 0 0 0 127 0" result="hardAlpha"/>
<feOffset dy="2"/>
<feGaussianBlur stdDeviation="3.25"/>
<feComposite in2="hardAlpha" operator="out"/>
<feColorMatrix type="matrix" values="0 0 0 0 0 0 0 0 0 0 0 0 0 0 0 0 0 0 0.25 0"/>
<feBlend mode="normal" in2="BackgroundImageFix" result="effect1_dropShadow_427_3054"/>
<feBlend mode="normal" in="SourceGraphic" in2="effect1_dropShadow_427_3054" result="shape"/>
</filter>
<filter id="filter8_d_427_3054" x="243.413" y="14.5" width="59.6001" height="65" filterUnits="userSpaceOnUse" color-interpolation-filters="sRGB">
<feFlood flood-opacity="0" result="BackgroundImageFix"/>
<feColorMatrix in="SourceAlpha" type="matrix" values="0 0 0 0 0 0 0 0 0 0 0 0 0 0 0 0 0 0 127 0" result="hardAlpha"/>
<feOffset dy="2"/>
<feGaussianBlur stdDeviation="3.25"/>
<feComposite in2="hardAlpha" operator="out"/>
<feColorMatrix type="matrix" values="0 0 0 0 0 0 0 0 0 0 0 0 0 0 0 0 0 0 0.25 0"/>
<feBlend mode="normal" in2="BackgroundImageFix" result="effect1_dropShadow_427_3054"/>
<feBlend mode="normal" in="SourceGraphic" in2="effect1_dropShadow_427_3054" result="shape"/>
</filter>
<filter id="filter9_d_427_3054" x="188.413" y="23.5" width="61.04" height="65.72" filterUnits="userSpaceOnUse" color-interpolation-filters="sRGB">
<feFlood flood-opacity="0" result="BackgroundImageFix"/>
<feColorMatrix in="SourceAlpha" type="matrix" values="0 0 0 0 0 0 0 0 0 0 0 0 0 0 0 0 0 0 127 0" result="hardAlpha"/>
<feOffset dy="2"/>
<feGaussianBlur stdDeviation="3.25"/>
<feComposite in2="hardAlpha" operator="out"/>
<feColorMatrix type="matrix" values="0 0 0 0 0 0 0 0 0 0 0 0 0 0 0 0 0 0 0.25 0"/>
<feBlend mode="normal" in2="BackgroundImageFix" result="effect1_dropShadow_427_3054"/>
<feBlend mode="normal" in="SourceGraphic" in2="effect1_dropShadow_427_3054" result="shape"/>
</filter>
<filter id="filter10_d_427_3054" x="122.413" y="14.5" width="68.96" height="66.4399" filterUnits="userSpaceOnUse" color-interpolation-filters="sRGB">
<feFlood flood-opacity="0" result="BackgroundImageFix"/>
<feColorMatrix in="SourceAlpha" type="matrix" values="0 0 0 0 0 0 0 0 0 0 0 0 0 0 0 0 0 0 127 0" result="hardAlpha"/>
<feOffset dy="2"/>
<feGaussianBlur stdDeviation="3.25"/>
<feComposite in2="hardAlpha" operator="out"/>
<feColorMatrix type="matrix" values="0 0 0 0 0 0 0 0 0 0 0 0 0 0 0 0 0 0 0.25 0"/>
<feBlend mode="normal" in2="BackgroundImageFix" result="effect1_dropShadow_427_3054"/>
<feBlend mode="normal" in="SourceGraphic" in2="effect1_dropShadow_427_3054" result="shape"/>
</filter>
<filter id="filter11_d_427_3054" x="0.797363" y="20.5" width="75.5154" height="65" filterUnits="userSpaceOnUse" color-interpolation-filters="sRGB">
<feFlood flood-opacity="0" result="BackgroundImageFix"/>
<feColorMatrix in="SourceAlpha" type="matrix" values="0 0 0 0 0 0 0 0 0 0 0 0 0 0 0 0 0 0 127 0" result="hardAlpha"/>
<feOffset dy="2"/>
<feGaussianBlur stdDeviation="3.25"/>
<feComposite in2="hardAlpha" operator="out"/>
<feColorMatrix type="matrix" values="0 0 0 0 0 0 0 0 0 0 0 0 0 0 0 0 0 0 0.25 0"/>
<feBlend mode="normal" in2="BackgroundImageFix" result="effect1_dropShadow_427_3054"/>
<feBlend mode="normal" in="SourceGraphic" in2="effect1_dropShadow_427_3054" result="shape"/>
</filter>
<filter id="filter12_d_427_3054" x="67.4131" y="12.5" width="61.52" height="65" filterUnits="userSpaceOnUse" color-interpolation-filters="sRGB">
<feFlood flood-opacity="0" result="BackgroundImageFix"/>
<feColorMatrix in="SourceAlpha" type="matrix" values="0 0 0 0 0 0 0 0 0 0 0 0 0 0 0 0 0 0 127 0" result="hardAlpha"/>
<feOffset dy="2"/>
<feGaussianBlur stdDeviation="3.25"/>
<feComposite in2="hardAlpha" operator="out"/>
<feColorMatrix type="matrix" values="0 0 0 0 0 0 0 0 0 0 0 0 0 0 0 0 0 0 0.25 0"/>
<feBlend mode="normal" in2="BackgroundImageFix" result="effect1_dropShadow_427_3054"/>
<feBlend mode="normal" in="SourceGraphic" in2="effect1_dropShadow_427_3054" result="shape"/>
</filter>
<filter id="filter13_d_427_3054" x="639.512" y="16.5" width="55.52" height="65" filterUnits="userSpaceOnUse" color-interpolation-filters="sRGB">
<feFlood flood-opacity="0" result="BackgroundImageFix"/>
<feColorMatrix in="SourceAlpha" type="matrix" values="0 0 0 0 0 0 0 0 0 0 0 0 0 0 0 0 0 0 127 0" result="hardAlpha"/>
<feOffset dy="2"/>
<feGaussianBlur stdDeviation="3.25"/>
<feComposite in2="hardAlpha" operator="out"/>
<feColorMatrix type="matrix" values="0 0 0 0 0 0 0 0 0 0 0 0 0 0 0 0 0 0 0.25 0"/>
<feBlend mode="normal" in2="BackgroundImageFix" result="effect1_dropShadow_427_3054"/>
<feBlend mode="normal" in="SourceGraphic" in2="effect1_dropShadow_427_3054" result="shape"/>
</filter>
</defs>
</svg>
